<?xml version="1.0" encoding="utf-8"?>
<!-- Generator: Adobe Illustrator 26.3.0, SVG Export Plug-In . SVG Version: 6.00 Build 0)  -->
<svg version="1.1" xmlns="http://www.w3.org/2000/svg" xmlns:xlink="http://www.w3.org/1999/xlink" x="0px" y="0px"
	 viewBox="0 0 485.26 282.72" style="enable-background:new 0 0 485.26 282.72;" xml:space="preserve">
<style type="text/css">
	.st0{fill:#F406D8;}
	.st1{fill:#070720;}
	.st2{fill:#FFFFFF;}
	.st3{fill:#C7D3E0;}
	.st4{fill:#FB3108;}
	.st5{fill:#7A8799;}
	.st6{fill:#61C7D4;}
	.st7{fill:#EE4036;}
	.st8{fill:#52C4D3;}
</style>
<g id="Content">
</g>
<g id="Text">
	<g>
		<g>
			<g>
				<path class="st1" d="M127.6,243.29l-16.07-17.68c-1.37-1.5-3.3-2.36-5.33-2.36H82.29c-3.74,0-5.64,4.5-3.03,7.18l12.49,12.81
					c2.5,2.78,2.5,7.02,0,9.79l-12.49,12.81c-2.61,2.68-0.71,7.18,3.03,7.18h23.91c2.03,0,3.97-0.86,5.33-2.36l16.07-17.68
					C130.1,250.23,130.1,246.04,127.6,243.29z"/>
			</g>
			<g>
				<path class="st2" d="M108.82,255.78c-0.61,0.84-1.58,1.26-2.92,1.26s-2.28-0.39-2.81-1.16s-0.81-1.99-0.81-3.67v-1.12h2.45v1.19
					c0,0.94,0.07,1.6,0.22,1.96c0.15,0.36,0.47,0.55,0.96,0.55c0.49,0,0.83-0.22,0.99-0.66c0.17-0.44,0.25-1.21,0.25-2.31
					s-0.11-1.89-0.32-2.36c-0.21-0.47-0.63-0.7-1.26-0.7h-0.74v-1.99h0.72c0.61,0,1.03-0.21,1.26-0.62
					c0.23-0.41,0.34-1.09,0.34-2.04c0-0.94-0.1-1.58-0.29-1.9c-0.19-0.33-0.5-0.49-0.91-0.49c-0.42,0-0.71,0.17-0.87,0.51
					c-0.17,0.34-0.25,0.94-0.25,1.78v0.52h-2.53V244c0-1.57,0.28-2.72,0.83-3.44c0.55-0.73,1.48-1.09,2.78-1.09
					c1.3,0,2.25,0.37,2.87,1.12c0.61,0.75,0.92,1.88,0.92,3.41c0,0.94-0.15,1.74-0.44,2.38c-0.29,0.64-0.74,1.07-1.33,1.28
					c0.65,0.31,1.11,0.81,1.39,1.52c0.27,0.71,0.41,1.63,0.41,2.75C109.73,253.66,109.43,254.94,108.82,255.78z"/>
			</g>
		</g>
		<g>
			<g>
				<g>
					<g>
						<path class="st1" d="M136.59,258.7v11.88c0,2.61,10.59,4.72,23.66,4.72c13.06,0,23.66-2.11,23.66-4.72V258.7H136.59z"/>
					</g>
				</g>
				<g>
					<g>
						<ellipse class="st3" cx="160.24" cy="258.7" rx="23.66" ry="4.72"/>
					</g>
				</g>
			</g>
			<g>
				<g>
					<g>
						<path class="st1" d="M136.59,242.91v11.88c0,2.61,10.59,4.72,23.66,4.72c13.06,0,23.66-2.11,23.66-4.72v-11.88H136.59z"/>
					</g>
				</g>
				<g>
					<g>
						<ellipse class="st3" cx="160.24" cy="242.91" rx="23.66" ry="4.72"/>
					</g>
				</g>
			</g>
			<g>
				<g>
					<path class="st4" d="M136.59,227.01v11.88c0,2.61,10.59,4.72,23.66,4.72c13.06,0,23.66-2.11,23.66-4.72v-11.88H136.59z"/>
				</g>
			</g>
			<g>
				<g>
					<g>
						<g>
							<ellipse class="st3" cx="160.24" cy="227.01" rx="23.66" ry="4.72"/>
						</g>
					</g>
				</g>
			</g>
			<g>
				<g>
					<circle class="st2" cx="143.57" cy="235.85" r="1.97"/>
				</g>
			</g>
			<g>
				<g>
					<path class="st2" d="M145.54,252.05c0,1.09-0.88,1.97-1.97,1.97c-1.09,0-1.97-0.88-1.97-1.97c0-1.09,0.88-1.97,1.97-1.97
						C144.66,250.08,145.54,250.96,145.54,252.05z"/>
				</g>
			</g>
			<g>
				<g>
					<circle class="st2" cx="143.57" cy="267.91" r="1.97"/>
				</g>
			</g>
		</g>
	</g>
	<g>
		<path class="st1" d="M197.85,242.12v-18.37h2.37c1.6,0,2.85,0.3,3.67,1.07s1.25,1.97,1.25,3.8c0,0.87-0.07,1.52-0.35,2.12
			c-0.27,0.6-0.7,1.1-1.32,1.67c0.67,0.38,1.17,1.07,1.57,2.25c0.2,0.57,0.3,1.32,0.3,2.25c0,1.37-0.25,2.6-0.88,3.55
			c-0.62,0.95-1.7,1.57-3.3,1.65H197.85z M200.55,231.32c0.22,0,0.75,0.02,1.2-0.27c0.45-0.3,0.8-0.9,0.8-2.17
			c0-1.27-0.35-1.87-0.8-2.17c-0.45-0.3-0.98-0.27-1.2-0.27V231.32z M200.55,239.45c0.22,0,0.75,0.05,1.2-0.27
			c0.45-0.33,0.8-1.05,0.8-2.55c0-1.5-0.35-2.22-0.8-2.55c-0.45-0.33-0.98-0.27-1.2-0.27V239.45z"/>
		<path class="st1" d="M210.85,228.45h2.52v13.67h-2.52v-1.15c-0.05,0.03-0.15,0.12-0.27,0.25c-0.3,0.3-0.65,0.65-1.1,0.9
			c-0.22,0.12-0.45,0.2-0.67,0.2c-0.67,0-1.15-0.4-1.45-0.92c-0.3-0.5-0.45-1.17-0.45-1.75v-11.2h2.52v10.82c0,0.52,0.3,0.6,0.6,0.6
			c0.27,0,0.42-0.15,0.6-0.32c0.08-0.08,0.15-0.2,0.22-0.33V228.45z"/>
		<path class="st1" d="M215.37,223.75h2.52v2.52h-2.52V223.75z M215.37,242.12v-13.67h2.52v13.67H215.37z"/>
		<path class="st1" d="M219.9,242.12v-18.37h2.52v18.37H219.9z"/>
		<path class="st1" d="M230.79,242.12h-2.52v-0.9c-0.42,0.4-0.8,0.7-1.27,0.92c-0.25,0.12-0.5,0.17-0.73,0.17
			c-0.7,0-1.17-0.4-1.47-0.92c-0.32-0.5-0.47-1.17-0.47-1.75v-8.72c0-0.57,0.15-1.25,0.47-1.77c0.3-0.5,0.78-0.9,1.47-0.9
			c0.48,0,0.98,0.27,1.35,0.55c0.22,0.17,0.42,0.35,0.65,0.55v-5.6h2.52V242.12z M228.27,231.45c0-0.4-0.38-0.82-0.75-0.82
			s-0.67,0.35-0.67,0.82v7.67c0,0.48,0.3,0.83,0.67,0.83s0.75-0.35,0.75-0.83V231.45z"/>
	</g>
	<path class="st4" d="M387,18.95H200.76c-0.3,0-0.59,0.06-0.85,0.16l-5.18-4.5c-1.04-0.91-2.62-0.79-3.53,0.25
		c-0.91,1.04-0.79,2.62,0.25,3.53l3.53,3.07l-3.53,3.07c-1.04,0.91-1.15,2.48-0.25,3.53c0.49,0.57,1.19,0.86,1.89,0.86
		c0.58,0,1.17-0.2,1.64-0.61l5.18-4.5c0.27,0.1,0.55,0.16,0.85,0.16H387c5.01,0,9.09,4.08,9.09,9.09v40.08
		c0,5.01-4.08,9.09-9.09,9.09H154.98c-7.76,0-14.07,6.31-14.09,14.06l-0.57-0.66c-0.9-1.04-2.48-1.15-3.53-0.25
		c-1.04,0.91-1.15,2.48-0.25,3.53l4.96,5.7c0.47,0.55,1.16,0.86,1.89,0.86c0.72,0,1.41-0.31,1.89-0.86l4.96-5.7
		c0.91-1.04,0.79-2.62-0.25-3.53c-1.04-0.91-2.62-0.8-3.53,0.25l-0.57,0.65c0.02-5,4.09-9.06,9.09-9.06H387
		c7.77,0,14.09-6.32,14.09-14.09V33.04C401.09,25.27,394.77,18.95,387,18.95z M143.39,99.15l-0.33-0.38
		c0.11,0.01,0.22,0.03,0.33,0.03s0.22-0.02,0.33-0.03L143.39,99.15z"/>
	<path class="st4" d="M93,188.35c0.42-0.85,0.88-1.65,1.39-2.4l-73.23,0.2h-0.03c-2.74,0-5.31-1.06-7.25-3
		c-1.95-1.94-3.02-4.52-3.02-7.27v-37.66c0-5.66,4.61-10.27,10.27-10.27h1.52c0,0.01-0.01,0.03-0.01,0.04l84.84,0.23l4.28,3.71
		c0.47,0.41,1.06,0.61,1.64,0.61c0.7,0,1.39-0.29,1.89-0.86c0.91-1.04,0.79-2.62-0.25-3.53l-3.53-3.07l3.53-3.07
		c1.04-0.91,1.15-2.48,0.25-3.53c-0.91-1.04-2.48-1.15-3.53-0.25l-5.7,4.96c0,0-0.01,0.01-0.01,0.01l-74.54-0.2
		c-0.18-0.04-0.36-0.07-0.55-0.07h-9.81c-8.42,0-15.27,6.85-15.27,15.27v37.66c0,4.09,1.59,7.92,4.49,10.81
		c2.88,2.88,6.71,4.46,10.78,4.46h0.04l71.25-0.19C92.41,190.06,92.6,189.16,93,188.35z"/>
	<path class="st4" d="M222.25,200.2c-1.04-0.9-2.62-0.79-3.53,0.25l-0.56,0.64c-0.01-4.08-1.6-7.9-4.48-10.78
		c-2.88-2.88-6.71-4.46-10.78-4.46h-0.04l-84.52,0.23c-0.02-0.07-0.04-0.14-0.06-0.2l-85.43,0.23c-0.11,1.67-0.22,3.33-0.35,5
		l67.19-0.18c0.01,0.07,0.03,0.14,0.04,0.2l103.14-0.28h0.03c2.74,0,5.31,1.06,7.25,3c1.95,1.94,3.02,4.52,3.02,7.27l-0.58-0.67
		c-0.91-1.04-2.48-1.15-3.53-0.25c-1.04,0.91-1.15,2.48-0.25,3.53l4.96,5.7c0.47,0.55,1.16,0.86,1.89,0.86
		c0.72,0,1.41-0.31,1.89-0.86l4.96-5.7C223.4,202.69,223.29,201.11,222.25,200.2z M215.65,203.98l-0.35-0.4
		c0.12,0.02,0.24,0.04,0.36,0.04c0.11,0,0.22-0.02,0.33-0.03L215.65,203.98z"/>
	<g>
		<g>
			<path class="st1" d="M75.07,34.63L59,16.94c-1.37-1.5-3.3-2.36-5.33-2.36H29.75c-3.74,0-5.64,4.5-3.03,7.18l12.49,12.81
				c2.5,2.78,2.5,7.02,0,9.79L26.73,57.18c-2.61,2.68-0.71,7.18,3.03,7.18h23.91c2.03,0,3.97-0.86,5.33-2.36l16.07-17.68
				C77.56,41.57,77.56,37.37,75.07,34.63z"/>
		</g>
		<g>
			<path class="st2" d="M52.64,48.19V34.24c-0.22,0.27-0.53,0.47-0.94,0.62s-0.8,0.22-1.19,0.22v-1.94c0.55-0.08,1.08-0.3,1.58-0.67
				c0.5-0.37,0.88-0.86,1.14-1.47h2.03v17.2H52.64z"/>
		</g>
	</g>
	<g>
		<path class="st4" d="M97.9,17.25c0.55,0,1-0.45,1-1c0-5.66,4.6-10.26,10.26-10.26c5.66,0,10.26,4.6,10.26,10.26c0,0.55,0.45,1,1,1
			c0.55,0,1-0.45,1-1c0-6.76-5.5-12.26-12.26-12.26c-6.76,0-12.26,5.5-12.26,12.26C96.9,16.8,97.34,17.25,97.9,17.25z"/>
	</g>
	<g>
		<path class="st1" d="M89.53,74.95h19.44c1.96,0,3.56-1.6,3.56-3.56v-6.01H85.97v6.01C85.97,73.35,87.57,74.95,89.53,74.95z"/>
	</g>
	<g>
		<circle class="st4" cx="109.15" cy="17.23" r="7.02"/>
	</g>
	<path class="st3" d="M83.78,40.94v15.89c0,1.48,0.9,2.75,2.18,3.3v5.28h26.6v-6.1c3.98-0.13,7.2-3.41,7.2-7.42v-1.83v-4.92v-4.2
		c0-1.98-1.62-3.6-3.6-3.6c-1.98,0-3.6,1.62-3.6,3.6l-0.03,0.12c0.01-0.11,0.03-0.22,0.03-0.34V17.74c0-1.98-1.62-3.6-3.6-3.6
		s-3.6,1.62-3.6,3.6v17.25c0-1.98-1.62-3.6-3.6-3.6s-3.6,1.62-3.6,3.6v2.97c0-1.98-1.62-3.6-3.6-3.6s-3.6,1.62-3.6,3.6v2.12h-0.01
		c-0.04,0-0.07,0.01-0.11,0.01c-0.39-1.56-1.8-2.73-3.48-2.73C85.4,37.35,83.78,38.96,83.78,40.94z M112.19,42.29l-0.16,0.58
		c-0.02-0.05-0.05-0.1-0.08-0.14C112.04,42.59,112.12,42.44,112.19,42.29z"/>
	<g>
		<circle class="st2" cx="108.51" cy="70.64" r="1.53"/>
	</g>
	<g>
		<path class="st4" d="M429.85,135.69l16.07-17.68c1.37-1.5,3.3-2.36,5.33-2.36h23.91c3.74,0,5.64,4.5,3.03,7.18l-12.48,12.81
			c-2.5,2.78-2.5,7.02,0,9.79l12.49,12.81c2.61,2.68,0.71,7.18-3.03,7.18h-23.91c-2.03,0-3.97-0.86-5.33-2.36l-16.07-17.68
			C427.36,142.63,427.36,138.44,429.85,135.69z"/>
	</g>
	<g>
		<path class="st3" d="M415.99,163.76h-66.44c-2.76,0-5-2.24-5-5v-47.14c0-2.76,2.24-5,5-5h66.44c2.76,0,5,2.24,5,5v47.14
			C420.99,161.52,418.75,163.76,415.99,163.76z"/>
	</g>
	<g>
		<rect x="368.63" y="163.76" class="st5" width="29.87" height="6.46"/>
	</g>
	<g>
		<path class="st3" d="M405.22,174.46H363.5c-1.17,0-2.12-0.95-2.12-2.12l0,0c0-1.17,0.95-2.12,2.12-2.12h41.72
			c1.17,0,2.12,0.95,2.12,2.12l0,0C407.34,173.5,406.38,174.46,405.22,174.46z"/>
	</g>
	<g>
		<circle class="st5" cx="383.56" cy="158.02" r="2.28"/>
	</g>
	<g>
		<rect x="365.51" y="112.51" class="st1" width="55.48" height="39.14"/>
	</g>
	<g>
		<rect x="344.55" y="112.51" class="st6" width="20.97" height="39.14"/>
	</g>
	<g>
		<g>
			<path class="st2" d="M376.21,123.78h-4.76c-0.52,0-0.95-0.43-0.95-0.95l0,0c0-0.52,0.43-0.95,0.95-0.95h4.76
				c0.52,0,0.95,0.43,0.95,0.95l0,0C377.16,123.35,376.73,123.78,376.21,123.78z"/>
		</g>
		<g>
			<path class="st7" d="M385.58,123.78h-6.35c-0.52,0-0.95-0.43-0.95-0.95l0,0c0-0.52,0.43-0.95,0.95-0.95h6.35
				c0.52,0,0.95,0.43,0.95,0.95l0,0C386.53,123.35,386.1,123.78,385.58,123.78z"/>
		</g>
		<g>
			<path class="st8" d="M400.14,123.78h-11.02c-0.52,0-0.95-0.43-0.95-0.95l0,0c0-0.52,0.43-0.95,0.95-0.95h11.02
				c0.52,0,0.95,0.43,0.95,0.95l0,0C401.08,123.35,400.66,123.78,400.14,123.78z"/>
		</g>
		<g>
			<path class="st7" d="M410.19,123.78h-6.35c-0.52,0-0.95-0.43-0.95-0.95l0,0c0-0.52,0.43-0.95,0.95-0.95h6.35
				c0.52,0,0.95,0.43,0.95,0.95l0,0C411.13,123.35,410.71,123.78,410.19,123.78z"/>
		</g>
	</g>
	<g>
		<g>
			<path class="st7" d="M392.34,128.17h10.06c0.52,0,0.95,0.43,0.95,0.95l0,0c0,0.52-0.43,0.95-0.95,0.95h-10.06
				c-0.52,0-0.95-0.43-0.95-0.95l0,0C391.4,128.6,391.82,128.17,392.34,128.17z"/>
		</g>
		<g>
			<path class="st2" d="M381.3,128.17h7.44c0.52,0,0.95,0.43,0.95,0.95l0,0c0,0.52-0.43,0.95-0.95,0.95h-7.44
				c-0.52,0-0.95-0.43-0.95-0.95l0,0C380.35,128.6,380.78,128.17,381.3,128.17z"/>
		</g>
		<g>
			<path class="st7" d="M371.45,128.17h6.35c0.52,0,0.95,0.43,0.95,0.95l0,0c0,0.52-0.43,0.95-0.95,0.95h-6.35
				c-0.52,0-0.95-0.43-0.95-0.95l0,0C370.5,128.6,370.93,128.17,371.45,128.17z"/>
		</g>
	</g>
	<g>
		<g>
			<path class="st2" d="M385.67,136.36h-14.22c-0.52,0-0.95-0.43-0.95-0.95l0,0c0-0.52,0.43-0.95,0.95-0.95h14.22
				c0.52,0,0.95,0.43,0.95,0.95l0,0C386.61,135.93,386.19,136.36,385.67,136.36z"/>
		</g>
		<g>
			<path class="st8" d="M392.13,136.36h-3.01c-0.52,0-0.95-0.43-0.95-0.95l0,0c0-0.52,0.43-0.95,0.95-0.95h3.01
				c0.52,0,0.95,0.43,0.95,0.95l0,0C393.07,135.93,392.65,136.36,392.13,136.36z"/>
		</g>
		<g>
			<path class="st2" d="M400.34,136.36h-4.76c-0.52,0-0.95-0.43-0.95-0.95l0,0c0-0.52,0.43-0.95,0.95-0.95h4.76
				c0.52,0,0.95,0.43,0.95,0.95l0,0C401.28,135.93,400.86,136.36,400.34,136.36z"/>
		</g>
	</g>
	<g>
		<g>
			<path class="st2" d="M405.42,147.05h4.76c0.52,0,0.95,0.43,0.95,0.95l0,0c0,0.52-0.43,0.95-0.95,0.95h-4.76
				c-0.52,0-0.95-0.43-0.95-0.95l0,0C404.48,147.47,404.9,147.05,405.42,147.05z"/>
		</g>
		<g>
			<path class="st7" d="M400.17,147.05h2.23c0.52,0,0.95,0.43,0.95,0.95l0,0c0,0.52-0.43,0.95-0.95,0.95h-2.23
				c-0.52,0-0.95-0.43-0.95-0.95l0,0C399.23,147.47,399.65,147.05,400.17,147.05z"/>
		</g>
		<g>
			<path class="st8" d="M389.51,147.05h7.5c0.52,0,0.95,0.43,0.95,0.95l0,0c0,0.52-0.43,0.95-0.95,0.95h-7.5
				c-0.52,0-0.95-0.43-0.95-0.95l0,0C388.56,147.47,388.99,147.05,389.51,147.05z"/>
		</g>
		<g>
			<path class="st2" d="M371.45,147.05h14.62c0.52,0,0.95,0.43,0.95,0.95l0,0c0,0.52-0.43,0.95-0.95,0.95h-14.62
				c-0.52,0-0.95-0.43-0.95-0.95l0,0C370.5,147.47,370.93,147.05,371.45,147.05z"/>
		</g>
	</g>
	<g>
		<g>
			<path class="st2" d="M373.65,142.65h-2.2c-0.52,0-0.95-0.43-0.95-0.95l0,0c0-0.52,0.43-0.95,0.95-0.95h2.2
				c0.52,0,0.95,0.43,0.95,0.95l0,0C374.6,142.22,374.17,142.65,373.65,142.65z"/>
		</g>
		<g>
			<path class="st8" d="M392.13,142.65h-3.01c-0.52,0-0.95-0.43-0.95-0.95l0,0c0-0.52,0.43-0.95,0.95-0.95h3.01
				c0.52,0,0.95,0.43,0.95,0.95l0,0C393.07,142.22,392.65,142.65,392.13,142.65z"/>
		</g>
		<g>
			<path class="st2" d="M400.34,142.65h-4.76c-0.52,0-0.95-0.43-0.95-0.95l0,0c0-0.52,0.43-0.95,0.95-0.95h4.76
				c0.52,0,0.95,0.43,0.95,0.95l0,0C401.28,142.22,400.86,142.65,400.34,142.65z"/>
		</g>
		<g>
			<path class="st7" d="M410.19,142.65h-6.35c-0.52,0-0.95-0.43-0.95-0.95l0,0c0-0.52,0.43-0.95,0.95-0.95h6.35
				c0.52,0,0.95,0.43,0.95,0.95l0,0C411.13,142.22,410.71,142.65,410.19,142.65z"/>
		</g>
		<g>
			<path class="st8" d="M385.69,142.65h-3.01c-0.52,0-0.95-0.43-0.95-0.95l0,0c0-0.52,0.43-0.95,0.95-0.95h3.01
				c0.52,0,0.95,0.43,0.95,0.95l0,0C386.64,142.22,386.22,142.65,385.69,142.65z"/>
		</g>
		<g>
			<path class="st8" d="M379.79,142.65h-3.01c-0.52,0-0.95-0.43-0.95-0.95l0,0c0-0.52,0.43-0.95,0.95-0.95h3.01
				c0.52,0,0.95,0.43,0.95,0.95l0,0C380.74,142.22,380.31,142.65,379.79,142.65z"/>
		</g>
	</g>
	<g>
		<g>
			<path class="st2" d="M351.21,122.83c0,0.62-0.5,1.13-1.13,1.13s-1.13-0.5-1.13-1.13c0-0.62,0.5-1.13,1.13-1.13
				S351.21,122.21,351.21,122.83z"/>
		</g>
		<g>
			<path class="st2" d="M358.46,123.78h-4.76c-0.52,0-0.95-0.43-0.95-0.95l0,0c0-0.52,0.43-0.95,0.95-0.95h4.76
				c0.52,0,0.95,0.43,0.95,0.95l0,0C359.41,123.35,358.98,123.78,358.46,123.78z"/>
		</g>
	</g>
	<g>
		<g>
			<path class="st2" d="M351.21,129.12c0,0.62-0.5,1.13-1.13,1.13s-1.13-0.5-1.13-1.13c0-0.62,0.5-1.13,1.13-1.13
				S351.21,128.5,351.21,129.12z"/>
		</g>
		<g>
			<path class="st2" d="M358.46,130.07h-4.76c-0.52,0-0.95-0.43-0.95-0.95l0,0c0-0.52,0.43-0.95,0.95-0.95h4.76
				c0.52,0,0.95,0.43,0.95,0.95l0,0C359.41,129.64,358.98,130.07,358.46,130.07z"/>
		</g>
	</g>
	<g>
		<g>
			<path class="st2" d="M351.21,135.41c0,0.62-0.5,1.13-1.13,1.13s-1.13-0.5-1.13-1.13c0-0.62,0.5-1.13,1.13-1.13
				S351.21,134.79,351.21,135.41z"/>
		</g>
		<g>
			<path class="st2" d="M358.46,136.36h-4.76c-0.52,0-0.95-0.43-0.95-0.95l0,0c0-0.52,0.43-0.95,0.95-0.95h4.76
				c0.52,0,0.95,0.43,0.95,0.95l0,0C359.41,135.93,358.98,136.36,358.46,136.36z"/>
		</g>
	</g>
	<g>
		<g>
			<path class="st2" d="M351.21,141.7c0,0.62-0.5,1.13-1.13,1.13s-1.13-0.5-1.13-1.13c0-0.62,0.5-1.13,1.13-1.13
				S351.21,141.08,351.21,141.7z"/>
		</g>
		<g>
			<path class="st2" d="M358.46,142.65h-4.76c-0.52,0-0.95-0.43-0.95-0.95l0,0c0-0.52,0.43-0.95,0.95-0.95h4.76
				c0.52,0,0.95,0.43,0.95,0.95l0,0C359.41,142.22,358.98,142.65,358.46,142.65z"/>
		</g>
	</g>
	<g>
		<g>
			<path class="st2" d="M351.21,147.99c0,0.62-0.5,1.13-1.13,1.13s-1.13-0.5-1.13-1.13c0-0.62,0.5-1.13,1.13-1.13
				S351.21,147.37,351.21,147.99z"/>
		</g>
		<g>
			<path class="st2" d="M358.46,148.94h-4.76c-0.52,0-0.95-0.43-0.95-0.95l0,0c0-0.52,0.43-0.95,0.95-0.95h4.76
				c0.52,0,0.95,0.43,0.95,0.95l0,0C359.41,148.51,358.98,148.94,358.46,148.94z"/>
		</g>
	</g>
	<g>
		<g>
			<path class="st2" d="M351.21,117.37c0,0.62-0.5,1.13-1.13,1.13s-1.13-0.5-1.13-1.13c0-0.62,0.5-1.13,1.13-1.13
				S351.21,116.75,351.21,117.37z"/>
		</g>
		<g>
			<path class="st2" d="M358.46,118.32h-4.76c-0.52,0-0.95-0.43-0.95-0.95l0,0c0-0.52,0.43-0.95,0.95-0.95h4.76
				c0.52,0,0.95,0.43,0.95,0.95l0,0C359.41,117.89,358.98,118.32,358.46,118.32z"/>
		</g>
	</g>
	<g>
		<g>
			<path class="st2" d="M376.02,118.5h-4.76c-0.52,0-0.95-0.43-0.95-0.95l0,0c0-0.52,0.43-0.95,0.95-0.95h4.76
				c0.52,0,0.95,0.43,0.95,0.95l0,0C376.96,118.07,376.54,118.5,376.02,118.5z"/>
		</g>
		<g>
			<path class="st2" d="M400.14,118.5h-21.1c-0.52,0-0.95-0.43-0.95-0.95l0,0c0-0.52,0.43-0.95,0.95-0.95h21.1
				c0.52,0,0.95,0.43,0.95,0.95l0,0C401.08,118.07,400.66,118.5,400.14,118.5z"/>
		</g>
		<g>
			<path class="st7" d="M409.99,118.5h-6.35c-0.52,0-0.95-0.43-0.95-0.95l0,0c0-0.52,0.43-0.95,0.95-0.95h6.35
				c0.52,0,0.95,0.43,0.95,0.95l0,0C410.94,118.07,410.51,118.5,409.99,118.5z"/>
		</g>
	</g>
	<g>
		<path class="st2" d="M447.84,149.23v-1.02c0-0.9,0.15-1.78,0.44-2.65c0.3-0.87,0.76-1.86,1.39-2.96c0.03-0.04,0.26-0.45,0.71-1.22
			c0.45-0.77,0.78-1.31,0.99-1.6c0.51-0.83,0.76-1.99,0.76-3.46c0-1.47-0.31-2.21-0.94-2.21c-0.52,0-0.84,0.41-0.97,1.23
			c-0.05,0.35-0.08,0.79-0.08,1.32v2.18h-2.5v-1.05c0-2.13,0.2-3.57,0.6-4.32c0.4-0.75,0.95-1.23,1.66-1.44
			c0.39-0.12,0.86-0.18,1.42-0.18c0.55,0,1.05,0.12,1.49,0.37c0.43,0.25,0.77,0.59,1.04,1.04c0.51,0.87,0.76,1.99,0.76,3.38
			c0,1.39-0.27,2.61-0.81,3.66c-0.54,1.05-1.07,1.98-1.6,2.79c-0.96,1.49-1.59,2.86-1.88,4.09h3.96v2.05H447.84z"/>
	</g>
	<g>
		<path class="st1" d="M133.84,119.69h-3.72v4.82h2.5v2.77h-2.5v8h-2.7v-18.37h6.42V119.69z"/>
		<path class="st1" d="M134.94,116.91h2.52v2.52h-2.52V116.91z M134.94,135.29v-13.67h2.52v13.67H134.94z"/>
		<path class="st1" d="M141.99,135.29h-2.52v-13.67h2.52v1.15c0.05-0.02,0.15-0.12,0.3-0.27c0.27-0.27,0.65-0.65,1.1-0.9
			c0.23-0.12,0.42-0.17,0.65-0.17c0.67,0,1.15,0.4,1.45,0.9c0.3,0.52,0.45,1.2,0.45,1.77v11.2h-2.52v-10.82c0-0.52-0.3-0.6-0.6-0.6
			c-0.27,0-0.43,0.15-0.6,0.33c-0.07,0.1-0.15,0.2-0.23,0.32V135.29z"/>
		<path class="st1" d="M154.27,135.29h-2.52v-0.9c-0.42,0.4-0.8,0.7-1.27,0.92c-0.25,0.12-0.5,0.17-0.73,0.17
			c-0.7,0-1.17-0.4-1.47-0.92c-0.32-0.5-0.47-1.17-0.47-1.75v-8.72c0-0.57,0.15-1.25,0.47-1.77c0.3-0.5,0.77-0.9,1.47-0.9
			c0.48,0,0.98,0.27,1.35,0.55c0.23,0.17,0.43,0.35,0.65,0.55v-5.6h2.52V135.29z M151.74,124.61c0-0.4-0.37-0.82-0.75-0.82
			s-0.67,0.35-0.67,0.82v7.67c0,0.48,0.3,0.83,0.67,0.83s0.75-0.35,0.75-0.83V124.61z"/>
	</g>
	<g>
		<path class="st1" d="M143.86,23.75v2.52c-0.02,0.75-0.17,1.42-0.45,2c-0.23,0.5-0.57,0.97-1.07,1.35c-0.5,0.4-1.17,0.62-2.07,0.62
			s-1.6-0.22-2.1-0.62c-0.5-0.38-0.82-0.85-1.05-1.35c-0.28-0.58-0.43-1.25-0.45-2V15.45c0.02-0.73,0.17-1.4,0.45-1.97
			c0.22-0.5,0.55-1,1.05-1.38c0.5-0.37,1.2-0.62,2.1-0.62s1.57,0.25,2.07,0.62c0.5,0.38,0.85,0.88,1.07,1.38
			c0.27,0.57,0.42,1.25,0.45,1.97v2.52h-2.52v-2.52c0-0.5-0.12-0.85-0.4-1.15c-0.12-0.12-0.35-0.2-0.62-0.2
			c-0.48,0-0.7,0.35-0.83,0.67c-0.07,0.2-0.1,0.43-0.12,0.68v10.82c0.03,0.52,0.18,0.87,0.43,1.15c0.12,0.12,0.3,0.2,0.52,0.2
			c0.57,0,0.8-0.3,0.92-0.67c0.07-0.18,0.1-0.4,0.1-0.67v-2.52H143.86z"/>
		<path class="st1" d="M150.54,18.98c-0.22-0.08-0.47-0.1-0.7-0.1c-0.4,0-0.87,0.05-1.27,0.42c-0.48,0.4-0.55,0.83-0.55,1.25v9.5
			h-2.52V16.38h2.52v1.52c0.03-0.17,0.2-0.6,0.6-1c0.4-0.37,1-0.72,1.92-0.72V18.98z"/>
		<path class="st1" d="M157.86,25.15v1.57c-0.08,1.32-0.48,2.25-1.37,2.97c-0.45,0.38-1.07,0.55-1.9,0.55c-1.62,0-2.45-0.9-2.85-1.8
			c-0.23-0.52-0.38-1.12-0.4-1.8v-6.87c0.08-1.32,0.5-2.3,1.4-3.05c0.43-0.38,1.05-0.55,1.88-0.55c1.62,0,2.45,0.9,2.85,1.77
			c0.23,0.52,0.38,1.1,0.4,1.75v3.97h-4.17v2.97c0.02,0.52,0.17,0.9,0.4,1.17c0.12,0.12,0.3,0.2,0.52,0.2c0.47,0,0.7-0.3,0.8-0.67
			c0.07-0.2,0.1-0.42,0.1-0.7v-1.5H157.86z M153.69,21.7h1.82v-1.92c0-0.52-0.1-0.9-0.35-1.2c-0.12-0.12-0.33-0.2-0.55-0.2
			c-0.48,0-0.67,0.33-0.8,0.7c-0.08,0.2-0.1,0.42-0.12,0.7V21.7z"/>
		<path class="st1" d="M163.29,19.63c0-0.23,0-0.58-0.07-0.82c-0.1-0.25-0.3-0.43-0.62-0.43c-0.42,0-0.6,0.33-0.67,0.73
			c-0.02,0.2-0.05,0.42-0.05,0.65c0,0.22,0,0.45,0,0.65h-2.52v-0.58c0-1,0.37-1.9,0.97-2.57c0.6-0.67,1.45-1.07,2.42-1.07
			c0.82,0,1.57,0.32,2.15,0.88c0.57,0.55,0.92,1.32,0.92,2.22v8.4c0,1.22,0.08,1.77,0.17,2.37h-2.47c-0.23-0.27-0.23-0.92-0.23-1.1
			h-0.17c-0.12,0.22-0.35,0.55-0.7,0.82c-0.35,0.27-0.83,0.47-1.32,0.47c-0.33,0-0.85-0.12-1.25-0.62
			c-0.42-0.48-0.77-1.32-0.77-2.75c0-1.52,0.45-2.62,1.05-3.37c0.6-0.75,1.35-1.22,1.97-1.55c0.62-0.32,1.1-0.55,1.2-0.82V19.63z
			 M163.29,23.45c-1.22,0.52-1.75,1.75-1.75,3.05c0,0.18,0.02,0.48,0.12,0.75c0.1,0.3,0.27,0.52,0.57,0.52
			c0.58,0,1.05-0.35,1.05-0.82V23.45z"/>
		<path class="st1" d="M170.41,13v3.37h1.72v2.27h-1.72v6.8c0,0.43,0,0.98,0.1,1.42c0.1,0.45,0.3,0.82,0.7,0.82
			c0.2,0,0.45-0.02,0.62-0.05c0.1-0.02,0.2-0.02,0.3-0.05v2.47c-0.12,0.02-0.25,0.08-0.38,0.1c-0.25,0.05-0.57,0.07-0.97,0.07
			c-1.47,0-2.17-0.75-2.52-1.7c-0.35-0.95-0.38-2.1-0.38-2.9v-7h-1.27v-2.27h1.27V13H170.41z"/>
		<path class="st1" d="M179.81,25.15v1.57c-0.08,1.32-0.48,2.25-1.37,2.97c-0.45,0.38-1.07,0.55-1.9,0.55c-1.62,0-2.45-0.9-2.85-1.8
			c-0.23-0.52-0.38-1.12-0.4-1.8v-6.87c0.08-1.32,0.5-2.3,1.4-3.05c0.43-0.38,1.05-0.55,1.88-0.55c1.62,0,2.45,0.9,2.85,1.77
			c0.23,0.52,0.38,1.1,0.4,1.75v3.97h-4.17v2.97c0.02,0.52,0.17,0.9,0.4,1.17c0.12,0.12,0.3,0.2,0.52,0.2c0.47,0,0.7-0.3,0.8-0.67
			c0.07-0.2,0.1-0.42,0.1-0.7v-1.5H179.81z M175.64,21.7h1.82v-1.92c0-0.52-0.1-0.9-0.35-1.2c-0.12-0.12-0.33-0.2-0.55-0.2
			c-0.48,0-0.67,0.33-0.8,0.7c-0.08,0.2-0.1,0.42-0.12,0.7V21.7z"/>
	</g>
	<g>
		<path d="M143.5,52.42c-0.32,0.16-0.96,0.32-1.78,0.32c-1.9,0-3.33-1.2-3.33-3.41c0-2.11,1.43-3.54,3.52-3.54
			c0.84,0,1.37,0.18,1.6,0.3l-0.21,0.71c-0.33-0.16-0.8-0.28-1.36-0.28c-1.58,0-2.63,1.01-2.63,2.78c0,1.65,0.95,2.71,2.59,2.71
			c0.53,0,1.07-0.11,1.42-0.28L143.5,52.42z"/>
		<path d="M144.53,49.31c0-0.57-0.01-1.06-0.04-1.51h0.77l0.03,0.95h0.04c0.22-0.65,0.75-1.06,1.34-1.06c0.1,0,0.17,0.01,0.25,0.03
			v0.83c-0.09-0.02-0.18-0.03-0.3-0.03c-0.62,0-1.06,0.47-1.18,1.13c-0.02,0.12-0.04,0.26-0.04,0.41v2.58h-0.87V49.31z"/>
		<path d="M148.19,50.38c0.02,1.19,0.78,1.68,1.66,1.68c0.63,0,1.01-0.11,1.34-0.25l0.15,0.63c-0.31,0.14-0.84,0.3-1.61,0.3
			c-1.49,0-2.38-0.98-2.38-2.44c0-1.46,0.86-2.61,2.27-2.61c1.58,0,2,1.39,2,2.28c0,0.18-0.02,0.32-0.03,0.41H148.19z M150.77,49.75
			c0.01-0.56-0.23-1.43-1.22-1.43c-0.89,0-1.28,0.82-1.35,1.43H150.77z"/>
		<path d="M155.39,52.64l-0.07-0.61h-0.03c-0.27,0.38-0.79,0.72-1.48,0.72c-0.98,0-1.48-0.69-1.48-1.39c0-1.17,1.04-1.81,2.91-1.8
			v-0.1c0-0.4-0.11-1.12-1.1-1.12c-0.45,0-0.92,0.14-1.26,0.36l-0.2-0.58c0.4-0.26,0.98-0.43,1.59-0.43c1.48,0,1.84,1.01,1.84,1.98
			v1.81c0,0.42,0.02,0.83,0.08,1.16H155.39z M155.26,50.17c-0.96-0.02-2.05,0.15-2.05,1.09c0,0.57,0.38,0.84,0.83,0.84
			c0.63,0,1.03-0.4,1.17-0.81c0.03-0.09,0.05-0.19,0.05-0.28V50.17z"/>
		<path d="M158.55,46.41v1.39h1.26v0.67h-1.26v2.61c0,0.6,0.17,0.94,0.66,0.94c0.23,0,0.4-0.03,0.51-0.06l0.04,0.66
			c-0.17,0.07-0.44,0.12-0.78,0.12c-0.41,0-0.74-0.13-0.95-0.37c-0.25-0.26-0.34-0.69-0.34-1.26v-2.64h-0.75V47.8h0.75v-1.16
			L158.55,46.41z"/>
		<path d="M161.23,50.38c0.02,1.19,0.78,1.68,1.66,1.68c0.63,0,1.01-0.11,1.34-0.25l0.15,0.63c-0.31,0.14-0.84,0.3-1.61,0.3
			c-1.49,0-2.38-0.98-2.38-2.44c0-1.46,0.86-2.61,2.27-2.61c1.58,0,2,1.39,2,2.28c0,0.18-0.02,0.32-0.03,0.41H161.23z M163.81,49.75
			c0.01-0.56-0.23-1.43-1.22-1.43c-0.89,0-1.28,0.82-1.35,1.43H163.81z"/>
		<path d="M168.19,47.8l1.06,2.86c0.11,0.32,0.23,0.7,0.31,0.99h0.02c0.09-0.29,0.19-0.66,0.31-1.01l0.96-2.84h0.93l-1.32,3.45
			c-0.63,1.66-1.06,2.51-1.66,3.03c-0.43,0.38-0.86,0.53-1.08,0.57l-0.22-0.74c0.22-0.07,0.51-0.21,0.77-0.43
			c0.24-0.19,0.54-0.53,0.74-0.98c0.04-0.09,0.07-0.16,0.07-0.21s-0.02-0.12-0.06-0.23l-1.79-4.46H168.19z"/>
		<path d="M176.86,50.18c0,1.79-1.24,2.57-2.41,2.57c-1.31,0-2.32-0.96-2.32-2.49c0-1.62,1.06-2.57,2.4-2.57
			C175.92,47.69,176.86,48.7,176.86,50.18z M173.02,50.23c0,1.06,0.61,1.86,1.47,1.86c0.84,0,1.47-0.79,1.47-1.88
			c0-0.82-0.41-1.86-1.45-1.86C173.47,48.35,173.02,49.31,173.02,50.23z"/>
		<path d="M182.02,51.32c0,0.5,0.01,0.94,0.04,1.32h-0.78l-0.05-0.79h-0.02c-0.23,0.39-0.74,0.9-1.6,0.9
			c-0.76,0-1.67-0.42-1.67-2.12V47.8h0.88v2.68c0,0.92,0.28,1.54,1.08,1.54c0.59,0,1-0.41,1.16-0.8c0.05-0.13,0.08-0.29,0.08-0.45
			V47.8h0.88V51.32z"/>
		<path d="M183.48,49.31c0-0.57-0.01-1.06-0.04-1.51h0.77l0.03,0.95h0.04c0.22-0.65,0.75-1.06,1.34-1.06c0.1,0,0.17,0.01,0.25,0.03
			v0.83c-0.09-0.02-0.18-0.03-0.3-0.03c-0.62,0-1.06,0.47-1.18,1.13c-0.02,0.12-0.04,0.26-0.04,0.41v2.58h-0.87V49.31z"/>
		<path d="M191.55,52.64l-0.07-0.61h-0.03c-0.27,0.38-0.79,0.72-1.48,0.72c-0.98,0-1.48-0.69-1.48-1.39c0-1.17,1.04-1.81,2.91-1.8
			v-0.1c0-0.4-0.11-1.12-1.1-1.12c-0.45,0-0.92,0.14-1.26,0.36l-0.2-0.58c0.4-0.26,0.98-0.43,1.59-0.43c1.48,0,1.84,1.01,1.84,1.98
			v1.81c0,0.42,0.02,0.83,0.08,1.16H191.55z M191.42,50.17c-0.96-0.02-2.05,0.15-2.05,1.09c0,0.57,0.38,0.84,0.83,0.84
			c0.63,0,1.03-0.4,1.17-0.81c0.03-0.09,0.05-0.19,0.05-0.28V50.17z"/>
		<path d="M197.14,52.46c-0.23,0.12-0.74,0.28-1.39,0.28c-1.46,0-2.41-0.99-2.41-2.47c0-1.49,1.02-2.57,2.6-2.57
			c0.52,0,0.98,0.13,1.22,0.25l-0.2,0.68c-0.21-0.12-0.54-0.23-1.02-0.23c-1.11,0-1.71,0.82-1.71,1.83c0,1.12,0.72,1.81,1.68,1.81
			c0.5,0,0.83-0.13,1.08-0.24L197.14,52.46z"/>
		<path d="M201.56,52.46c-0.23,0.12-0.74,0.28-1.39,0.28c-1.46,0-2.41-0.99-2.41-2.47c0-1.49,1.02-2.57,2.6-2.57
			c0.52,0,0.98,0.13,1.22,0.25l-0.2,0.68c-0.21-0.12-0.54-0.23-1.02-0.23c-1.11,0-1.71,0.82-1.71,1.83c0,1.12,0.72,1.81,1.68,1.81
			c0.5,0,0.83-0.13,1.08-0.24L201.56,52.46z"/>
		<path d="M206.91,50.18c0,1.79-1.24,2.57-2.41,2.57c-1.31,0-2.32-0.96-2.32-2.49c0-1.62,1.06-2.57,2.4-2.57
			C205.97,47.69,206.91,48.7,206.91,50.18z M203.07,50.23c0,1.06,0.61,1.86,1.47,1.86c0.84,0,1.47-0.79,1.47-1.88
			c0-0.82-0.41-1.86-1.45-1.86C203.52,48.35,203.07,49.31,203.07,50.23z"/>
		<path d="M212.07,51.32c0,0.5,0.01,0.94,0.04,1.32h-0.78l-0.05-0.79h-0.02c-0.23,0.39-0.74,0.9-1.6,0.9
			c-0.76,0-1.67-0.42-1.67-2.12V47.8h0.88v2.68c0,0.92,0.28,1.54,1.08,1.54c0.59,0,1-0.41,1.16-0.8c0.05-0.13,0.08-0.29,0.08-0.45
			V47.8h0.88V51.32z"/>
		<path d="M213.53,49.11c0-0.5-0.01-0.91-0.04-1.31h0.78l0.05,0.8h0.02c0.24-0.46,0.8-0.91,1.6-0.91c0.67,0,1.71,0.4,1.71,2.06v2.89
			h-0.88v-2.79c0-0.78-0.29-1.43-1.12-1.43c-0.58,0-1.03,0.41-1.18,0.9c-0.04,0.11-0.06,0.26-0.06,0.41v2.91h-0.88V49.11z"/>
		<path d="M220.1,46.41v1.39h1.26v0.67h-1.26v2.61c0,0.6,0.17,0.94,0.66,0.94c0.23,0,0.4-0.03,0.51-0.06l0.04,0.66
			c-0.17,0.07-0.44,0.12-0.78,0.12c-0.41,0-0.74-0.13-0.95-0.37c-0.25-0.26-0.34-0.69-0.34-1.26v-2.64h-0.75V47.8h0.75v-1.16
			L220.1,46.41z"/>
		<path d="M224.56,52.64v-4.17h-0.68V47.8h0.68v-0.23c0-0.68,0.15-1.3,0.56-1.69c0.33-0.32,0.77-0.45,1.18-0.45
			c0.31,0,0.58,0.07,0.75,0.14l-0.12,0.68c-0.13-0.06-0.31-0.11-0.56-0.11c-0.75,0-0.94,0.66-0.94,1.4v0.26h1.17v0.67h-1.17v4.17
			H224.56z"/>
		<path d="M231.64,50.18c0,1.79-1.24,2.57-2.41,2.57c-1.31,0-2.32-0.96-2.32-2.49c0-1.62,1.06-2.57,2.4-2.57
			C230.7,47.69,231.64,48.7,231.64,50.18z M227.8,50.23c0,1.06,0.61,1.86,1.47,1.86c0.84,0,1.47-0.79,1.47-1.88
			c0-0.82-0.41-1.86-1.45-1.86C228.25,48.35,227.8,49.31,227.8,50.23z"/>
		<path d="M232.75,49.31c0-0.57-0.01-1.06-0.04-1.51h0.77l0.03,0.95h0.04c0.22-0.65,0.75-1.06,1.34-1.06c0.1,0,0.17,0.01,0.25,0.03
			v0.83c-0.09-0.02-0.18-0.03-0.3-0.03c-0.62,0-1.06,0.47-1.18,1.13c-0.02,0.12-0.04,0.26-0.04,0.41v2.58h-0.87V49.31z"/>
		<path d="M238.23,52.64v-4.17h-0.68V47.8h0.68v-0.23c0-0.68,0.15-1.3,0.56-1.69c0.33-0.32,0.77-0.45,1.18-0.45
			c0.31,0,0.58,0.07,0.75,0.14l-0.12,0.68c-0.13-0.06-0.31-0.11-0.56-0.11c-0.75,0-0.94,0.66-0.94,1.4v0.26h1.17v0.67h-1.17v4.17
			H238.23z"/>
		<path d="M241.06,49.31c0-0.57-0.01-1.06-0.04-1.51h0.77l0.03,0.95h0.04c0.22-0.65,0.75-1.06,1.34-1.06c0.1,0,0.17,0.01,0.25,0.03
			v0.83c-0.09-0.02-0.18-0.03-0.3-0.03c-0.62,0-1.06,0.47-1.18,1.13c-0.02,0.12-0.04,0.26-0.04,0.41v2.58h-0.87V49.31z"/>
		<path d="M244.72,50.38c0.02,1.19,0.78,1.68,1.66,1.68c0.63,0,1.01-0.11,1.34-0.25l0.15,0.63c-0.31,0.14-0.84,0.3-1.61,0.3
			c-1.49,0-2.38-0.98-2.38-2.44c0-1.46,0.86-2.61,2.27-2.61c1.58,0,2,1.39,2,2.28c0,0.18-0.02,0.32-0.03,0.41H244.72z M247.3,49.75
			c0.01-0.56-0.23-1.43-1.22-1.43c-0.89,0-1.28,0.82-1.35,1.43H247.3z"/>
		<path d="M249.73,50.38c0.02,1.19,0.78,1.68,1.66,1.68c0.63,0,1.01-0.11,1.34-0.25l0.15,0.63c-0.31,0.14-0.84,0.3-1.61,0.3
			c-1.49,0-2.38-0.98-2.38-2.44c0-1.46,0.86-2.61,2.27-2.61c1.58,0,2,1.39,2,2.28c0,0.18-0.02,0.32-0.03,0.41H249.73z M252.31,49.75
			c0.01-0.56-0.23-1.43-1.22-1.43c-0.89,0-1.28,0.82-1.35,1.43H252.31z"/>
		<path d="M141.44,64.64l-0.07-0.61h-0.03c-0.27,0.38-0.79,0.72-1.48,0.72c-0.98,0-1.48-0.69-1.48-1.39c0-1.17,1.04-1.81,2.91-1.8
			v-0.1c0-0.4-0.11-1.12-1.1-1.12c-0.45,0-0.92,0.14-1.26,0.36l-0.2-0.58c0.4-0.26,0.98-0.43,1.59-0.43c1.48,0,1.84,1.01,1.84,1.98
			v1.81c0,0.42,0.02,0.83,0.08,1.16H141.44z M141.31,62.17c-0.96-0.02-2.05,0.15-2.05,1.09c0,0.57,0.38,0.84,0.83,0.84
			c0.63,0,1.03-0.4,1.17-0.81c0.03-0.09,0.05-0.19,0.05-0.28V62.17z"/>
		<path d="M143.58,61.11c0-0.5-0.01-0.91-0.04-1.31h0.78l0.05,0.8h0.02c0.24-0.46,0.8-0.91,1.6-0.91c0.67,0,1.71,0.4,1.71,2.06v2.89
			h-0.88v-2.79c0-0.78-0.29-1.43-1.12-1.43c-0.58,0-1.03,0.41-1.18,0.9c-0.04,0.11-0.06,0.26-0.06,0.41v2.91h-0.88V61.11z"/>
		<path d="M153.31,57.54v5.85c0,0.43,0.01,0.92,0.04,1.25h-0.79l-0.04-0.84h-0.02c-0.27,0.54-0.86,0.95-1.65,0.95
			c-1.17,0-2.07-0.99-2.07-2.46c-0.01-1.61,0.99-2.6,2.17-2.6c0.74,0,1.24,0.35,1.46,0.74h0.02v-2.89H153.31z M152.43,61.77
			c0-0.11-0.01-0.26-0.04-0.37c-0.13-0.56-0.61-1.02-1.27-1.02c-0.91,0-1.45,0.8-1.45,1.87c0,0.98,0.48,1.79,1.43,1.79
			c0.59,0,1.13-0.39,1.29-1.05c0.03-0.12,0.04-0.24,0.04-0.38V61.77z"/>
		<path d="M156.77,63.74c0.26,0.17,0.72,0.35,1.16,0.35c0.64,0,0.94-0.32,0.94-0.72c0-0.42-0.25-0.65-0.9-0.89
			c-0.87-0.31-1.28-0.79-1.28-1.37c0-0.78,0.63-1.42,1.67-1.42c0.49,0,0.92,0.14,1.19,0.3l-0.22,0.64
			c-0.19-0.12-0.54-0.28-0.99-0.28c-0.52,0-0.81,0.3-0.81,0.66c0,0.4,0.29,0.58,0.92,0.82c0.84,0.32,1.27,0.74,1.27,1.46
			c0,0.85-0.66,1.45-1.81,1.45c-0.53,0-1.02-0.13-1.36-0.33L156.77,63.74z"/>
		<path d="M161.91,58.41v1.39h1.26v0.67h-1.26v2.61c0,0.6,0.17,0.94,0.66,0.94c0.23,0,0.4-0.03,0.51-0.06l0.04,0.66
			c-0.17,0.07-0.44,0.12-0.78,0.12c-0.41,0-0.74-0.13-0.95-0.37c-0.25-0.26-0.34-0.69-0.34-1.26v-2.64h-0.75V59.8h0.75v-1.16
			L161.91,58.41z"/>
		<path d="M166.84,64.64l-0.07-0.61h-0.03c-0.27,0.38-0.79,0.72-1.48,0.72c-0.98,0-1.48-0.69-1.48-1.39c0-1.17,1.04-1.81,2.91-1.8
			v-0.1c0-0.4-0.11-1.12-1.1-1.12c-0.45,0-0.92,0.14-1.26,0.36l-0.2-0.58c0.4-0.26,0.98-0.43,1.59-0.43c1.48,0,1.84,1.01,1.84,1.98
			v1.81c0,0.42,0.02,0.83,0.08,1.16H166.84z M166.71,62.17c-0.96-0.02-2.05,0.15-2.05,1.09c0,0.57,0.38,0.84,0.83,0.84
			c0.63,0,1.03-0.4,1.17-0.81c0.03-0.09,0.05-0.19,0.05-0.28V62.17z"/>
		<path d="M168.98,61.31c0-0.57-0.01-1.06-0.04-1.51h0.77l0.03,0.95h0.04c0.22-0.65,0.75-1.06,1.34-1.06c0.1,0,0.17,0.01,0.25,0.03
			v0.83c-0.09-0.02-0.18-0.03-0.3-0.03c-0.62,0-1.06,0.47-1.18,1.13c-0.02,0.12-0.04,0.26-0.04,0.41v2.58h-0.87V61.31z"/>
		<path d="M173.55,58.41v1.39h1.26v0.67h-1.26v2.61c0,0.6,0.17,0.94,0.66,0.94c0.23,0,0.4-0.03,0.51-0.06l0.04,0.66
			c-0.17,0.07-0.44,0.12-0.78,0.12c-0.41,0-0.74-0.13-0.95-0.37c-0.25-0.26-0.34-0.69-0.34-1.26v-2.64h-0.75V59.8h0.75v-1.16
			L173.55,58.41z"/>
		<path d="M181.37,64.46c-0.23,0.12-0.74,0.28-1.39,0.28c-1.46,0-2.41-0.99-2.41-2.47c0-1.49,1.02-2.57,2.6-2.57
			c0.52,0,0.98,0.13,1.22,0.25l-0.2,0.68c-0.21-0.12-0.54-0.23-1.02-0.23c-1.11,0-1.71,0.82-1.71,1.83c0,1.12,0.72,1.81,1.68,1.81
			c0.5,0,0.83-0.13,1.08-0.24L181.37,64.46z"/>
		<path d="M182.4,61.31c0-0.57-0.01-1.06-0.04-1.51h0.77l0.03,0.95h0.04c0.22-0.65,0.75-1.06,1.34-1.06c0.1,0,0.17,0.01,0.25,0.03
			v0.83c-0.09-0.02-0.18-0.03-0.3-0.03c-0.62,0-1.06,0.47-1.18,1.13c-0.02,0.12-0.04,0.26-0.04,0.41v2.58h-0.87V61.31z"/>
		<path d="M186.06,62.38c0.02,1.19,0.78,1.68,1.66,1.68c0.63,0,1.01-0.11,1.34-0.25l0.15,0.63c-0.31,0.14-0.84,0.3-1.61,0.3
			c-1.49,0-2.38-0.98-2.38-2.44c0-1.46,0.86-2.61,2.27-2.61c1.58,0,2,1.39,2,2.28c0,0.18-0.02,0.32-0.03,0.41H186.06z M188.64,61.75
			c0.01-0.56-0.23-1.43-1.22-1.43c-0.89,0-1.28,0.82-1.35,1.43H188.64z"/>
		<path d="M193.26,64.64l-0.07-0.61h-0.03c-0.27,0.38-0.79,0.72-1.48,0.72c-0.98,0-1.48-0.69-1.48-1.39c0-1.17,1.04-1.81,2.91-1.8
			v-0.1c0-0.4-0.11-1.12-1.1-1.12c-0.45,0-0.92,0.14-1.26,0.36l-0.2-0.58c0.4-0.26,0.98-0.43,1.59-0.43c1.48,0,1.84,1.01,1.84,1.98
			v1.81c0,0.42,0.02,0.83,0.08,1.16H193.26z M193.13,62.17c-0.96-0.02-2.05,0.15-2.05,1.09c0,0.57,0.38,0.84,0.83,0.84
			c0.63,0,1.03-0.4,1.17-0.81c0.03-0.09,0.05-0.19,0.05-0.28V62.17z"/>
		<path d="M196.42,58.41v1.39h1.26v0.67h-1.26v2.61c0,0.6,0.17,0.94,0.66,0.94c0.23,0,0.4-0.03,0.51-0.06l0.04,0.66
			c-0.17,0.07-0.44,0.12-0.78,0.12c-0.41,0-0.74-0.13-0.95-0.37c-0.25-0.26-0.34-0.69-0.34-1.26v-2.64h-0.75V59.8h0.75v-1.16
			L196.42,58.41z"/>
		<path d="M199.65,58.44c0.01,0.3-0.21,0.54-0.56,0.54c-0.31,0-0.53-0.24-0.53-0.54c0-0.31,0.23-0.55,0.55-0.55
			C199.44,57.89,199.65,58.13,199.65,58.44z M198.67,64.64V59.8h0.88v4.84H198.67z"/>
		<path d="M201.01,61.11c0-0.5-0.01-0.91-0.04-1.31h0.78l0.05,0.8h0.02c0.24-0.46,0.8-0.91,1.6-0.91c0.67,0,1.71,0.4,1.71,2.06v2.89
			h-0.88v-2.79c0-0.78-0.29-1.43-1.12-1.43c-0.58,0-1.03,0.41-1.18,0.9c-0.04,0.11-0.06,0.26-0.06,0.41v2.91h-0.88V61.11z"/>
		<path d="M210.73,59.8c-0.02,0.35-0.04,0.74-0.04,1.33v2.81c0,1.11-0.22,1.79-0.69,2.21c-0.47,0.44-1.15,0.58-1.76,0.58
			c-0.58,0-1.22-0.14-1.61-0.4l0.22-0.67c0.32,0.2,0.82,0.38,1.42,0.38c0.9,0,1.56-0.47,1.56-1.69v-0.54h-0.02
			c-0.27,0.45-0.79,0.81-1.54,0.81c-1.2,0-2.06-1.02-2.06-2.36c0-1.64,1.07-2.57,2.18-2.57c0.84,0,1.3,0.44,1.51,0.84h0.02
			l0.04-0.73H210.73z M209.82,61.71c0-0.15-0.01-0.28-0.05-0.4c-0.16-0.51-0.59-0.93-1.23-0.93c-0.84,0-1.44,0.71-1.44,1.83
			c0,0.95,0.48,1.74,1.43,1.74c0.54,0,1.03-0.34,1.22-0.9c0.05-0.15,0.07-0.32,0.07-0.47V61.71z"/>
		<path d="M216.95,64.64l-0.07-0.61h-0.03c-0.27,0.38-0.79,0.72-1.48,0.72c-0.98,0-1.48-0.69-1.48-1.39c0-1.17,1.04-1.81,2.91-1.8
			v-0.1c0-0.4-0.11-1.12-1.1-1.12c-0.45,0-0.92,0.14-1.26,0.36l-0.2-0.58c0.4-0.26,0.98-0.43,1.59-0.43c1.48,0,1.84,1.01,1.84,1.98
			v1.81c0,0.42,0.02,0.83,0.08,1.16H216.95z M216.82,62.17c-0.96-0.02-2.05,0.15-2.05,1.09c0,0.57,0.38,0.84,0.83,0.84
			c0.63,0,1.03-0.4,1.17-0.81c0.03-0.09,0.05-0.19,0.05-0.28V62.17z"/>
		<path d="M219.09,61.11c0-0.5-0.01-0.91-0.04-1.31h0.78l0.05,0.8h0.02c0.24-0.46,0.8-0.91,1.6-0.91c0.67,0,1.71,0.4,1.71,2.06v2.89
			h-0.88v-2.79c0-0.78-0.29-1.43-1.12-1.43c-0.58,0-1.03,0.41-1.18,0.9c-0.04,0.11-0.06,0.26-0.06,0.41v2.91h-0.88V61.11z"/>
		<path d="M228.82,57.54v5.85c0,0.43,0.01,0.92,0.04,1.25h-0.79l-0.04-0.84h-0.02c-0.27,0.54-0.86,0.95-1.65,0.95
			c-1.17,0-2.07-0.99-2.07-2.46c-0.01-1.61,0.99-2.6,2.17-2.6c0.74,0,1.24,0.35,1.46,0.74h0.02v-2.89H228.82z M227.94,61.77
			c0-0.11-0.01-0.26-0.04-0.37c-0.13-0.56-0.61-1.02-1.27-1.02c-0.91,0-1.45,0.8-1.45,1.87c0,0.98,0.48,1.79,1.43,1.79
			c0.59,0,1.13-0.39,1.29-1.05c0.03-0.12,0.04-0.24,0.04-0.38V61.77z"/>
		<path d="M235.08,64.64l-0.07-0.61h-0.03c-0.27,0.38-0.79,0.72-1.48,0.72c-0.98,0-1.48-0.69-1.48-1.39c0-1.17,1.04-1.81,2.91-1.8
			v-0.1c0-0.4-0.11-1.12-1.1-1.12c-0.45,0-0.92,0.14-1.26,0.36l-0.2-0.58c0.4-0.26,0.98-0.43,1.59-0.43c1.48,0,1.84,1.01,1.84,1.98
			v1.81c0,0.42,0.02,0.83,0.08,1.16H235.08z M234.95,62.17c-0.96-0.02-2.05,0.15-2.05,1.09c0,0.57,0.38,0.84,0.83,0.84
			c0.63,0,1.03-0.4,1.17-0.81c0.03-0.09,0.05-0.19,0.05-0.28V62.17z"/>
		<path d="M241.4,57.54v5.85c0,0.43,0.01,0.92,0.04,1.25h-0.79l-0.04-0.84h-0.02c-0.27,0.54-0.86,0.95-1.65,0.95
			c-1.17,0-2.07-0.99-2.07-2.46c-0.01-1.61,0.99-2.6,2.17-2.6c0.74,0,1.24,0.35,1.46,0.74h0.02v-2.89H241.4z M240.52,61.77
			c0-0.11-0.01-0.26-0.04-0.37c-0.13-0.56-0.61-1.02-1.27-1.02c-0.91,0-1.45,0.8-1.45,1.87c0,0.98,0.48,1.79,1.43,1.79
			c0.59,0,1.13-0.39,1.29-1.05c0.03-0.12,0.04-0.24,0.04-0.38V61.77z"/>
		<path d="M247.04,57.54v5.85c0,0.43,0.01,0.92,0.04,1.25h-0.79l-0.04-0.84h-0.02c-0.27,0.54-0.86,0.95-1.65,0.95
			c-1.17,0-2.07-0.99-2.07-2.46c-0.01-1.61,0.99-2.6,2.17-2.6c0.74,0,1.24,0.35,1.46,0.74h0.02v-2.89H247.04z M246.16,61.77
			c0-0.11-0.01-0.26-0.04-0.37c-0.13-0.56-0.61-1.02-1.27-1.02c-0.91,0-1.45,0.8-1.45,1.87c0,0.98,0.48,1.79,1.43,1.79
			c0.59,0,1.13-0.39,1.29-1.05c0.03-0.12,0.04-0.24,0.04-0.38V61.77z"/>
		<path d="M249.48,58.44c0.01,0.3-0.21,0.54-0.56,0.54c-0.31,0-0.53-0.24-0.53-0.54c0-0.31,0.23-0.55,0.55-0.55
			C249.27,57.89,249.48,58.13,249.48,58.44z M248.5,64.64V59.8h0.88v4.84H248.5z"/>
		<path d="M250.84,61.11c0-0.5-0.01-0.91-0.04-1.31h0.78l0.05,0.8h0.02c0.24-0.46,0.8-0.91,1.6-0.91c0.67,0,1.71,0.4,1.71,2.06v2.89
			h-0.88v-2.79c0-0.78-0.29-1.43-1.12-1.43c-0.58,0-1.03,0.41-1.18,0.9c-0.04,0.11-0.06,0.26-0.06,0.41v2.91h-0.88V61.11z"/>
		<path d="M260.56,59.8c-0.02,0.35-0.04,0.74-0.04,1.33v2.81c0,1.11-0.22,1.79-0.69,2.21c-0.47,0.44-1.15,0.58-1.76,0.58
			c-0.58,0-1.22-0.14-1.61-0.4l0.22-0.67c0.32,0.2,0.82,0.38,1.42,0.38c0.9,0,1.56-0.47,1.56-1.69v-0.54h-0.02
			c-0.27,0.45-0.79,0.81-1.54,0.81c-1.2,0-2.06-1.02-2.06-2.36c0-1.64,1.07-2.57,2.18-2.57c0.84,0,1.3,0.44,1.51,0.84h0.02
			l0.04-0.73H260.56z M259.65,61.71c0-0.15-0.01-0.28-0.05-0.4c-0.16-0.51-0.59-0.93-1.23-0.93c-0.84,0-1.44,0.71-1.44,1.83
			c0,0.95,0.48,1.74,1.43,1.74c0.54,0,1.03-0.34,1.22-0.9c0.05-0.15,0.07-0.32,0.07-0.47V61.71z"/>
		<path d="M268.27,59.8c-0.02,0.35-0.04,0.74-0.04,1.33v2.81c0,1.11-0.22,1.79-0.69,2.21c-0.47,0.44-1.15,0.58-1.76,0.58
			c-0.58,0-1.22-0.14-1.61-0.4l0.22-0.67c0.32,0.2,0.82,0.38,1.42,0.38c0.9,0,1.56-0.47,1.56-1.69v-0.54h-0.02
			c-0.27,0.45-0.79,0.81-1.54,0.81c-1.2,0-2.06-1.02-2.06-2.36c0-1.64,1.07-2.57,2.18-2.57c0.84,0,1.3,0.44,1.51,0.84h0.02
			l0.04-0.73H268.27z M267.36,61.71c0-0.15-0.01-0.28-0.05-0.4c-0.16-0.51-0.59-0.93-1.23-0.93c-0.84,0-1.44,0.71-1.44,1.83
			c0,0.95,0.48,1.74,1.43,1.74c0.54,0,1.03-0.34,1.22-0.9c0.05-0.15,0.07-0.32,0.07-0.47V61.71z"/>
		<path d="M272.37,64.64l-0.07-0.61h-0.03c-0.27,0.38-0.79,0.72-1.48,0.72c-0.98,0-1.48-0.69-1.48-1.39c0-1.17,1.04-1.81,2.91-1.8
			v-0.1c0-0.4-0.11-1.12-1.1-1.12c-0.45,0-0.92,0.14-1.26,0.36l-0.2-0.58c0.4-0.26,0.98-0.43,1.59-0.43c1.48,0,1.84,1.01,1.84,1.98
			v1.81c0,0.42,0.02,0.83,0.08,1.16H272.37z M272.24,62.17c-0.96-0.02-2.05,0.15-2.05,1.09c0,0.57,0.38,0.84,0.83,0.84
			c0.63,0,1.03-0.4,1.17-0.81c0.03-0.09,0.05-0.19,0.05-0.28V62.17z"/>
		<path d="M274.51,61.11c0-0.5-0.01-0.91-0.04-1.31h0.77l0.04,0.78h0.03c0.27-0.46,0.72-0.89,1.52-0.89c0.66,0,1.16,0.4,1.37,0.97
			h0.02c0.15-0.27,0.34-0.48,0.54-0.63c0.29-0.22,0.61-0.34,1.07-0.34c0.64,0,1.59,0.42,1.59,2.1v2.85h-0.86V61.9
			c0-0.93-0.34-1.49-1.05-1.49c-0.5,0-0.89,0.37-1.04,0.8c-0.04,0.12-0.07,0.28-0.07,0.44v2.99h-0.86v-2.9
			c0-0.77-0.34-1.33-1.01-1.33c-0.55,0-0.95,0.44-1.09,0.88c-0.05,0.13-0.07,0.28-0.07,0.43v2.92h-0.86V61.11z"/>
		<path d="M283.34,62.38c0.02,1.19,0.78,1.68,1.66,1.68c0.63,0,1.01-0.11,1.34-0.25l0.15,0.63c-0.31,0.14-0.84,0.3-1.61,0.3
			c-1.49,0-2.38-0.98-2.38-2.44c0-1.46,0.86-2.61,2.27-2.61c1.58,0,2,1.39,2,2.28c0,0.18-0.02,0.32-0.03,0.41H283.34z M285.92,61.75
			c0.01-0.56-0.23-1.43-1.22-1.43c-0.89,0-1.28,0.82-1.35,1.43H285.92z"/>
		<path d="M287.74,63.74c0.26,0.17,0.72,0.35,1.16,0.35c0.64,0,0.94-0.32,0.94-0.72c0-0.42-0.25-0.65-0.9-0.89
			c-0.87-0.31-1.28-0.79-1.28-1.37c0-0.78,0.63-1.42,1.67-1.42c0.49,0,0.92,0.14,1.19,0.3l-0.22,0.64
			c-0.19-0.12-0.54-0.28-0.99-0.28c-0.52,0-0.81,0.3-0.81,0.66c0,0.4,0.29,0.58,0.92,0.82c0.84,0.32,1.27,0.74,1.27,1.46
			c0,0.85-0.66,1.45-1.81,1.45c-0.53,0-1.02-0.13-1.36-0.33L287.74,63.74z"/>
		<path d="M295,58.41v1.39h1.26v0.67H295v2.61c0,0.6,0.17,0.94,0.66,0.94c0.23,0,0.4-0.03,0.51-0.06l0.04,0.66
			c-0.17,0.07-0.44,0.12-0.78,0.12c-0.41,0-0.74-0.13-0.95-0.37c-0.25-0.26-0.34-0.69-0.34-1.26v-2.64h-0.75V59.8h0.75v-1.16
			L295,58.41z"/>
		<path d="M301.57,62.18c0,1.79-1.24,2.57-2.41,2.57c-1.31,0-2.32-0.96-2.32-2.49c0-1.62,1.06-2.57,2.4-2.57
			C300.63,59.69,301.57,60.7,301.57,62.18z M297.73,62.23c0,1.06,0.61,1.86,1.47,1.86c0.84,0,1.47-0.79,1.47-1.88
			c0-0.82-0.41-1.86-1.45-1.86C298.18,60.35,297.73,61.31,297.73,62.23z"/>
		<path d="M305.12,59.8l1.06,2.86c0.11,0.32,0.23,0.7,0.31,0.99h0.02c0.09-0.29,0.19-0.66,0.31-1.01l0.96-2.84h0.93l-1.32,3.45
			c-0.63,1.66-1.06,2.51-1.66,3.03c-0.43,0.38-0.86,0.53-1.08,0.57l-0.22-0.74c0.22-0.07,0.51-0.21,0.77-0.43
			c0.24-0.19,0.54-0.53,0.74-0.98c0.04-0.09,0.07-0.16,0.07-0.21s-0.02-0.12-0.06-0.23l-1.79-4.46H305.12z"/>
		<path d="M313.79,62.18c0,1.79-1.24,2.57-2.41,2.57c-1.31,0-2.32-0.96-2.32-2.49c0-1.62,1.06-2.57,2.4-2.57
			C312.85,59.69,313.79,60.7,313.79,62.18z M309.95,62.23c0,1.06,0.61,1.86,1.47,1.86c0.84,0,1.47-0.79,1.47-1.88
			c0-0.82-0.41-1.86-1.45-1.86C310.4,60.35,309.95,61.31,309.95,62.23z"/>
		<path d="M318.95,63.32c0,0.5,0.01,0.94,0.04,1.32h-0.78l-0.05-0.79h-0.02c-0.23,0.39-0.74,0.9-1.6,0.9
			c-0.76,0-1.67-0.42-1.67-2.12V59.8h0.88v2.68c0,0.92,0.28,1.54,1.08,1.54c0.59,0,1-0.41,1.16-0.8c0.05-0.13,0.08-0.29,0.08-0.45
			V59.8h0.88V63.32z"/>
		<path d="M320.41,61.31c0-0.57-0.01-1.06-0.04-1.51h0.77l0.03,0.95h0.04c0.22-0.65,0.75-1.06,1.34-1.06c0.1,0,0.17,0.01,0.25,0.03
			v0.83c-0.09-0.02-0.18-0.03-0.3-0.03c-0.62,0-1.06,0.47-1.18,1.13c-0.02,0.12-0.04,0.26-0.04,0.41v2.58h-0.87V61.31z"/>
		<path d="M325.8,57.54h0.88v7.1h-0.88V57.54z"/>
		<path d="M329.14,58.44c0.01,0.3-0.21,0.54-0.56,0.54c-0.31,0-0.53-0.24-0.53-0.54c0-0.31,0.23-0.55,0.55-0.55
			C328.93,57.89,329.14,58.13,329.14,58.44z M328.16,64.64V59.8h0.88v4.84H328.16z"/>
		<path d="M330.46,64.64c0.02-0.33,0.04-0.82,0.04-1.25v-5.85h0.87v3.04h0.02c0.31-0.54,0.87-0.89,1.65-0.89c1.2,0,2.05,1,2.04,2.47
			c0,1.73-1.09,2.59-2.17,2.59c-0.7,0-1.26-0.27-1.62-0.91h-0.03l-0.04,0.8H330.46z M331.37,62.7c0,0.11,0.02,0.22,0.04,0.32
			c0.17,0.61,0.68,1.03,1.32,1.03c0.92,0,1.47-0.75,1.47-1.86c0-0.97-0.5-1.8-1.44-1.8c-0.6,0-1.16,0.41-1.34,1.08
			c-0.02,0.1-0.05,0.22-0.05,0.36V62.7z"/>
		<path d="M336.19,61.31c0-0.57-0.01-1.06-0.04-1.51h0.77l0.03,0.95h0.04c0.22-0.65,0.75-1.06,1.34-1.06c0.1,0,0.17,0.01,0.25,0.03
			v0.83c-0.09-0.02-0.18-0.03-0.3-0.03c-0.62,0-1.06,0.47-1.18,1.13c-0.02,0.12-0.04,0.26-0.04,0.41v2.58h-0.87V61.31z"/>
		<path d="M342.09,64.64l-0.07-0.61h-0.03c-0.27,0.38-0.79,0.72-1.48,0.72c-0.98,0-1.48-0.69-1.48-1.39c0-1.17,1.04-1.81,2.91-1.8
			v-0.1c0-0.4-0.11-1.12-1.1-1.12c-0.45,0-0.92,0.14-1.26,0.36l-0.2-0.58c0.4-0.26,0.98-0.43,1.59-0.43c1.48,0,1.84,1.01,1.84,1.98
			v1.81c0,0.42,0.02,0.83,0.08,1.16H342.09z M341.96,62.17c-0.96-0.02-2.05,0.15-2.05,1.09c0,0.57,0.38,0.84,0.83,0.84
			c0.63,0,1.03-0.4,1.17-0.81c0.03-0.09,0.05-0.19,0.05-0.28V62.17z"/>
		<path d="M344.23,61.31c0-0.57-0.01-1.06-0.04-1.51h0.77l0.03,0.95h0.04c0.22-0.65,0.75-1.06,1.34-1.06c0.1,0,0.17,0.01,0.25,0.03
			v0.83c-0.09-0.02-0.18-0.03-0.3-0.03c-0.62,0-1.06,0.47-1.18,1.13c-0.02,0.12-0.04,0.26-0.04,0.41v2.58h-0.87V61.31z"/>
		<path d="M348.07,59.8l1.06,2.86c0.11,0.32,0.23,0.7,0.31,0.99h0.02c0.09-0.29,0.19-0.66,0.31-1.01l0.96-2.84h0.93l-1.32,3.45
			c-0.63,1.66-1.06,2.51-1.66,3.03c-0.43,0.38-0.86,0.53-1.08,0.57l-0.22-0.74c0.22-0.07,0.51-0.21,0.77-0.43
			c0.24-0.19,0.54-0.53,0.74-0.98c0.04-0.09,0.07-0.16,0.07-0.21s-0.02-0.12-0.06-0.23l-1.79-4.46H348.07z"/>
		<path d="M351.86,64.12c0-0.37,0.25-0.63,0.6-0.63s0.59,0.26,0.59,0.63c0,0.36-0.23,0.63-0.6,0.63
			C352.1,64.75,351.86,64.48,351.86,64.12z"/>
	</g>
	<g>
		<path d="M130.3,154.52v-2.86l-2.13-3.88h0.99l0.95,1.86c0.26,0.51,0.46,0.92,0.67,1.39h0.02c0.19-0.44,0.42-0.88,0.68-1.39
			l0.97-1.86h0.99l-2.26,3.87v2.87H130.3z"/>
		<path d="M137.8,152.06c0,1.79-1.24,2.57-2.41,2.57c-1.31,0-2.32-0.96-2.32-2.49c0-1.62,1.06-2.57,2.4-2.57
			C136.86,149.57,137.8,150.58,137.8,152.06z M133.96,152.11c0,1.06,0.61,1.86,1.47,1.86c0.84,0,1.47-0.79,1.47-1.88
			c0-0.82-0.41-1.86-1.45-1.86C134.41,150.23,133.96,151.19,133.96,152.11z"/>
		<path d="M142.96,153.2c0,0.5,0.01,0.94,0.04,1.32h-0.78l-0.05-0.79h-0.02c-0.23,0.39-0.74,0.9-1.6,0.9
			c-0.76,0-1.67-0.42-1.67-2.12v-2.83h0.88v2.68c0,0.92,0.28,1.54,1.08,1.54c0.59,0,1-0.41,1.16-0.8c0.05-0.13,0.08-0.29,0.08-0.45
			v-2.97h0.88V153.2z"/>
		<path d="M149.99,154.34c-0.23,0.12-0.74,0.28-1.39,0.28c-1.46,0-2.41-0.99-2.41-2.47c0-1.49,1.02-2.57,2.6-2.57
			c0.52,0,0.98,0.13,1.22,0.25l-0.2,0.68c-0.21-0.12-0.54-0.23-1.02-0.23c-1.11,0-1.71,0.82-1.71,1.83c0,1.12,0.72,1.81,1.68,1.81
			c0.5,0,0.83-0.13,1.08-0.24L149.99,154.34z"/>
		<path d="M153.7,154.52l-0.07-0.61h-0.03c-0.27,0.38-0.79,0.72-1.48,0.72c-0.98,0-1.48-0.69-1.48-1.39c0-1.17,1.04-1.81,2.91-1.8
			v-0.1c0-0.4-0.11-1.12-1.1-1.12c-0.45,0-0.92,0.14-1.26,0.36l-0.2-0.58c0.4-0.26,0.98-0.43,1.59-0.43c1.48,0,1.84,1.01,1.84,1.98
			v1.81c0,0.42,0.02,0.83,0.08,1.16H153.7z M153.57,152.05c-0.96-0.02-2.05,0.15-2.05,1.09c0,0.57,0.38,0.84,0.83,0.84
			c0.63,0,1.03-0.4,1.17-0.81c0.03-0.09,0.05-0.19,0.05-0.28V152.05z"/>
		<path d="M155.84,150.99c0-0.5-0.01-0.91-0.04-1.31h0.78l0.05,0.8h0.02c0.24-0.46,0.8-0.91,1.6-0.91c0.67,0,1.71,0.4,1.71,2.06
			v2.89h-0.88v-2.79c0-0.78-0.29-1.43-1.12-1.43c-0.58,0-1.03,0.41-1.18,0.9c-0.04,0.11-0.06,0.26-0.06,0.41v2.91h-0.88V150.99z"/>
		<path d="M166.19,154.52l-0.07-0.61h-0.03c-0.27,0.38-0.79,0.72-1.48,0.72c-0.98,0-1.48-0.69-1.48-1.39c0-1.17,1.04-1.81,2.91-1.8
			v-0.1c0-0.4-0.11-1.12-1.1-1.12c-0.45,0-0.92,0.14-1.26,0.36l-0.2-0.58c0.4-0.26,0.98-0.43,1.59-0.43c1.48,0,1.84,1.01,1.84,1.98
			v1.81c0,0.42,0.02,0.83,0.08,1.16H166.19z M166.06,152.05c-0.96-0.02-2.05,0.15-2.05,1.09c0,0.57,0.38,0.84,0.83,0.84
			c0.63,0,1.03-0.4,1.17-0.81c0.03-0.09,0.05-0.19,0.05-0.28V152.05z"/>
		<path d="M168.33,147.42h0.88v7.1h-0.88V147.42z"/>
		<path d="M170.57,153.62c0.26,0.17,0.72,0.35,1.16,0.35c0.64,0,0.94-0.32,0.94-0.72c0-0.42-0.25-0.65-0.9-0.89
			c-0.87-0.31-1.28-0.79-1.28-1.37c0-0.78,0.63-1.42,1.67-1.42c0.49,0,0.92,0.14,1.19,0.3l-0.22,0.64
			c-0.19-0.12-0.54-0.28-0.99-0.28c-0.52,0-0.81,0.3-0.81,0.66c0,0.4,0.29,0.58,0.92,0.82c0.84,0.32,1.27,0.74,1.27,1.46
			c0,0.85-0.66,1.45-1.81,1.45c-0.53,0-1.02-0.13-1.36-0.33L170.57,153.62z"/>
		<path d="M179.03,152.06c0,1.79-1.24,2.57-2.41,2.57c-1.31,0-2.32-0.96-2.32-2.49c0-1.62,1.06-2.57,2.4-2.57
			C178.09,149.57,179.03,150.58,179.03,152.06z M175.19,152.11c0,1.06,0.61,1.86,1.47,1.86c0.84,0,1.47-0.79,1.47-1.88
			c0-0.82-0.41-1.86-1.45-1.86C175.64,150.23,175.19,151.19,175.19,152.11z"/>
		<path d="M182.35,154.52v-4.17h-0.68v-0.67h0.68v-0.26c0-1.28,0.75-2.11,2.11-2.11c0.45,0,0.98,0.14,1.23,0.32l-0.25,0.67
			c-0.21-0.15-0.59-0.28-1.02-0.28c-0.93,0-1.2,0.65-1.2,1.42v0.24h2.81v4.84h-0.87v-4.17h-1.94v4.17H182.35z"/>
		<path d="M187.49,150.99c0-0.5-0.01-0.91-0.04-1.31h0.78l0.05,0.8h0.02c0.24-0.46,0.8-0.91,1.6-0.91c0.67,0,1.71,0.4,1.71,2.06
			v2.89h-0.88v-2.79c0-0.78-0.29-1.43-1.12-1.43c-0.58,0-1.03,0.41-1.18,0.9c-0.04,0.11-0.06,0.26-0.06,0.41v2.91h-0.88V150.99z"/>
		<path d="M197.22,147.42v5.85c0,0.43,0.01,0.92,0.04,1.25h-0.79l-0.04-0.84h-0.02c-0.27,0.54-0.86,0.95-1.65,0.95
			c-1.17,0-2.07-0.99-2.07-2.46c-0.01-1.61,0.99-2.6,2.17-2.6c0.74,0,1.24,0.35,1.46,0.74h0.02v-2.89H197.22z M196.34,151.65
			c0-0.11-0.01-0.26-0.04-0.37c-0.13-0.56-0.61-1.02-1.27-1.02c-0.91,0-1.45,0.8-1.45,1.87c0,0.98,0.48,1.79,1.43,1.79
			c0.59,0,1.13-0.39,1.29-1.05c0.03-0.12,0.04-0.24,0.04-0.38V151.65z"/>
		<path d="M204.97,149.68c-0.02,0.35-0.04,0.74-0.04,1.33v2.81c0,1.11-0.22,1.79-0.69,2.21c-0.47,0.44-1.15,0.58-1.76,0.58
			c-0.58,0-1.22-0.14-1.61-0.4l0.22-0.67c0.32,0.2,0.82,0.38,1.42,0.38c0.9,0,1.56-0.47,1.56-1.69v-0.54h-0.02
			c-0.27,0.45-0.79,0.81-1.54,0.81c-1.2,0-2.06-1.02-2.06-2.36c0-1.64,1.07-2.57,2.18-2.57c0.84,0,1.3,0.44,1.51,0.84h0.02
			l0.04-0.73H204.97z M204.06,151.59c0-0.15-0.01-0.28-0.05-0.4c-0.16-0.51-0.59-0.93-1.23-0.93c-0.84,0-1.44,0.71-1.44,1.83
			c0,0.95,0.48,1.74,1.43,1.74c0.54,0,1.03-0.34,1.22-0.9c0.05-0.15,0.07-0.32,0.07-0.47V151.59z"/>
		<path d="M209.07,154.52l-0.07-0.61h-0.03c-0.27,0.38-0.79,0.72-1.48,0.72c-0.98,0-1.48-0.69-1.48-1.39c0-1.17,1.04-1.81,2.91-1.8
			v-0.1c0-0.4-0.11-1.12-1.1-1.12c-0.45,0-0.92,0.14-1.26,0.36l-0.2-0.58c0.4-0.26,0.98-0.43,1.59-0.43c1.48,0,1.84,1.01,1.84,1.98
			v1.81c0,0.42,0.02,0.83,0.08,1.16H209.07z M208.94,152.05c-0.96-0.02-2.05,0.15-2.05,1.09c0,0.57,0.38,0.84,0.83,0.84
			c0.63,0,1.03-0.4,1.17-0.81c0.03-0.09,0.05-0.19,0.05-0.28V152.05z"/>
		<path d="M211.21,150.99c0-0.5-0.01-0.91-0.04-1.31h0.77l0.04,0.78h0.03c0.27-0.46,0.72-0.89,1.52-0.89c0.66,0,1.16,0.4,1.37,0.97
			h0.02c0.15-0.27,0.34-0.48,0.54-0.63c0.29-0.22,0.61-0.34,1.07-0.34c0.64,0,1.59,0.42,1.59,2.1v2.85h-0.86v-2.74
			c0-0.93-0.34-1.49-1.05-1.49c-0.5,0-0.89,0.37-1.04,0.8c-0.04,0.12-0.07,0.28-0.07,0.44v2.99h-0.86v-2.9
			c0-0.77-0.34-1.33-1.01-1.33c-0.55,0-0.95,0.44-1.09,0.88c-0.05,0.13-0.07,0.28-0.07,0.43v2.92h-0.86V150.99z"/>
		<path d="M220.04,152.26c0.02,1.19,0.78,1.68,1.66,1.68c0.63,0,1.01-0.11,1.34-0.25l0.15,0.63c-0.31,0.14-0.84,0.3-1.61,0.3
			c-1.49,0-2.38-0.98-2.38-2.44c0-1.46,0.86-2.61,2.27-2.61c1.58,0,2,1.39,2,2.28c0,0.18-0.02,0.32-0.03,0.41H220.04z
			 M222.62,151.63c0.01-0.56-0.23-1.43-1.22-1.43c-0.89,0-1.28,0.82-1.35,1.43H222.62z"/>
		<path d="M224.44,153.62c0.26,0.17,0.72,0.35,1.16,0.35c0.64,0,0.94-0.32,0.94-0.72c0-0.42-0.25-0.65-0.9-0.89
			c-0.87-0.31-1.28-0.79-1.28-1.37c0-0.78,0.63-1.42,1.67-1.42c0.49,0,0.92,0.14,1.19,0.3l-0.22,0.64
			c-0.19-0.12-0.54-0.28-0.99-0.28c-0.52,0-0.81,0.3-0.81,0.66c0,0.4,0.29,0.58,0.92,0.82c0.84,0.32,1.27,0.74,1.27,1.46
			c0,0.85-0.66,1.45-1.81,1.45c-0.53,0-1.02-0.13-1.36-0.33L224.44,153.62z"/>
		<path d="M132.22,166.34c-0.23,0.12-0.74,0.28-1.39,0.28c-1.46,0-2.41-0.99-2.41-2.47c0-1.49,1.02-2.57,2.6-2.57
			c0.52,0,0.98,0.13,1.22,0.25l-0.2,0.68c-0.21-0.12-0.54-0.23-1.02-0.23c-1.11,0-1.71,0.82-1.71,1.83c0,1.12,0.72,1.81,1.68,1.81
			c0.5,0,0.83-0.13,1.08-0.24L132.22,166.34z"/>
		<path d="M133.25,163.19c0-0.57-0.01-1.06-0.04-1.51h0.77l0.03,0.95h0.04c0.22-0.65,0.75-1.06,1.34-1.06c0.1,0,0.17,0.01,0.25,0.03
			v0.83c-0.09-0.02-0.18-0.03-0.3-0.03c-0.62,0-1.06,0.47-1.18,1.13c-0.02,0.12-0.04,0.26-0.04,0.41v2.58h-0.87V163.19z"/>
		<path d="M136.91,164.26c0.02,1.19,0.78,1.68,1.66,1.68c0.63,0,1.01-0.11,1.34-0.25l0.15,0.63c-0.31,0.14-0.84,0.3-1.61,0.3
			c-1.49,0-2.38-0.98-2.38-2.44c0-1.46,0.86-2.61,2.27-2.61c1.58,0,2,1.39,2,2.28c0,0.18-0.02,0.32-0.03,0.41H136.91z
			 M139.49,163.63c0.01-0.56-0.23-1.43-1.22-1.43c-0.89,0-1.28,0.82-1.35,1.43H139.49z"/>
		<path d="M144.11,166.52l-0.07-0.61h-0.03c-0.27,0.38-0.79,0.72-1.48,0.72c-0.98,0-1.48-0.69-1.48-1.39c0-1.17,1.04-1.81,2.91-1.8
			v-0.1c0-0.4-0.11-1.12-1.1-1.12c-0.45,0-0.92,0.14-1.26,0.36l-0.2-0.58c0.4-0.26,0.98-0.43,1.59-0.43c1.48,0,1.84,1.01,1.84,1.98
			v1.81c0,0.42,0.02,0.83,0.08,1.16H144.11z M143.98,164.05c-0.96-0.02-2.05,0.15-2.05,1.09c0,0.57,0.38,0.84,0.83,0.84
			c0.63,0,1.03-0.4,1.17-0.81c0.03-0.09,0.05-0.19,0.05-0.28V164.05z"/>
		<path d="M147.27,160.29v1.39h1.26v0.67h-1.26v2.61c0,0.6,0.17,0.94,0.66,0.94c0.23,0,0.4-0.03,0.51-0.06l0.04,0.66
			c-0.17,0.07-0.44,0.12-0.78,0.12c-0.41,0-0.74-0.13-0.95-0.37c-0.25-0.26-0.34-0.69-0.34-1.26v-2.64h-0.75v-0.67h0.75v-1.16
			L147.27,160.29z"/>
		<path d="M149.95,164.26c0.02,1.19,0.78,1.68,1.66,1.68c0.63,0,1.01-0.11,1.34-0.25l0.15,0.63c-0.31,0.14-0.84,0.3-1.61,0.3
			c-1.49,0-2.38-0.98-2.38-2.44c0-1.46,0.86-2.61,2.27-2.61c1.58,0,2,1.39,2,2.28c0,0.18-0.02,0.32-0.03,0.41H149.95z
			 M152.53,163.63c0.01-0.56-0.23-1.43-1.22-1.43c-0.89,0-1.28,0.82-1.35,1.43H152.53z"/>
		<path d="M158.65,159.42v5.85c0,0.43,0.01,0.92,0.04,1.25h-0.79l-0.04-0.84h-0.02c-0.27,0.54-0.86,0.95-1.65,0.95
			c-1.17,0-2.07-0.99-2.07-2.46c-0.01-1.61,0.99-2.6,2.17-2.6c0.74,0,1.24,0.35,1.46,0.74h0.02v-2.89H158.65z M157.77,163.65
			c0-0.11-0.01-0.26-0.04-0.37c-0.13-0.56-0.61-1.02-1.27-1.02c-0.91,0-1.45,0.8-1.45,1.87c0,0.98,0.48,1.79,1.43,1.79
			c0.59,0,1.13-0.39,1.29-1.05c0.03-0.12,0.04-0.24,0.04-0.38V163.65z"/>
		<path d="M162.19,166.52c0.02-0.33,0.04-0.82,0.04-1.25v-5.85h0.87v3.04h0.02c0.31-0.54,0.87-0.89,1.65-0.89
			c1.2,0,2.05,1,2.04,2.47c0,1.73-1.09,2.59-2.17,2.59c-0.7,0-1.26-0.27-1.62-0.91h-0.03l-0.04,0.8H162.19z M163.1,164.58
			c0,0.11,0.02,0.22,0.04,0.32c0.17,0.61,0.68,1.03,1.32,1.03c0.92,0,1.47-0.75,1.47-1.86c0-0.97-0.5-1.8-1.44-1.8
			c-0.6,0-1.16,0.41-1.34,1.08c-0.02,0.1-0.05,0.22-0.05,0.36V164.58z"/>
		<path d="M168.17,161.68l1.06,2.86c0.11,0.32,0.23,0.7,0.31,0.99h0.02c0.09-0.29,0.19-0.66,0.31-1.01l0.96-2.84h0.93l-1.32,3.45
			c-0.63,1.66-1.06,2.51-1.66,3.03c-0.43,0.38-0.86,0.53-1.08,0.57l-0.22-0.74c0.22-0.07,0.51-0.21,0.77-0.43
			c0.24-0.19,0.54-0.53,0.74-0.98c0.04-0.09,0.07-0.16,0.07-0.21s-0.02-0.12-0.06-0.23l-1.79-4.46H168.17z"/>
		<path d="M179.06,164.06c0,1.79-1.24,2.57-2.41,2.57c-1.31,0-2.32-0.96-2.32-2.49c0-1.62,1.06-2.57,2.4-2.57
			C178.12,161.57,179.06,162.58,179.06,164.06z M175.22,164.11c0,1.06,0.61,1.86,1.47,1.86c0.84,0,1.47-0.79,1.47-1.88
			c0-0.82-0.41-1.86-1.45-1.86S175.22,163.19,175.22,164.11z"/>
		<path d="M181.23,160.29v1.39h1.26v0.67h-1.26v2.61c0,0.6,0.17,0.94,0.66,0.94c0.23,0,0.4-0.03,0.51-0.06l0.04,0.66
			c-0.17,0.07-0.44,0.12-0.78,0.12c-0.41,0-0.74-0.13-0.95-0.37c-0.25-0.26-0.34-0.69-0.34-1.26v-2.64h-0.75v-0.67h0.75v-1.16
			L181.23,160.29z"/>
		<path d="M183.48,159.42h0.88v3.02h0.02c0.14-0.25,0.36-0.47,0.63-0.62c0.26-0.15,0.57-0.25,0.9-0.25c0.65,0,1.69,0.4,1.69,2.07
			v2.88h-0.88v-2.78c0-0.78-0.29-1.44-1.12-1.44c-0.57,0-1.02,0.4-1.18,0.88c-0.05,0.12-0.06,0.25-0.06,0.42v2.92h-0.88V159.42z"/>
		<path d="M189.52,164.26c0.02,1.19,0.78,1.68,1.66,1.68c0.63,0,1.01-0.11,1.34-0.25l0.15,0.63c-0.31,0.14-0.84,0.3-1.61,0.3
			c-1.49,0-2.38-0.98-2.38-2.44c0-1.46,0.86-2.61,2.27-2.61c1.58,0,2,1.39,2,2.28c0,0.18-0.02,0.32-0.03,0.41H189.52z M192.1,163.63
			c0.01-0.56-0.23-1.43-1.22-1.43c-0.89,0-1.28,0.82-1.35,1.43H192.1z"/>
		<path d="M194.04,163.19c0-0.57-0.01-1.06-0.04-1.51h0.77l0.03,0.95h0.04c0.22-0.65,0.75-1.06,1.34-1.06c0.1,0,0.17,0.01,0.25,0.03
			v0.83c-0.09-0.02-0.18-0.03-0.3-0.03c-0.62,0-1.06,0.47-1.18,1.13c-0.02,0.12-0.04,0.26-0.04,0.41v2.58h-0.87V163.19z"/>
		<path d="M203.48,165.2c0,0.5,0.01,0.94,0.04,1.32h-0.78l-0.05-0.79h-0.02c-0.23,0.39-0.74,0.9-1.6,0.9
			c-0.76,0-1.67-0.42-1.67-2.12v-2.83h0.88v2.68c0,0.92,0.28,1.54,1.08,1.54c0.59,0,1-0.41,1.16-0.8c0.05-0.13,0.08-0.29,0.08-0.45
			v-2.97h0.88V165.2z"/>
		<path d="M204.82,165.62c0.26,0.17,0.72,0.35,1.16,0.35c0.64,0,0.94-0.32,0.94-0.72c0-0.42-0.25-0.65-0.9-0.89
			c-0.87-0.31-1.28-0.79-1.28-1.37c0-0.78,0.63-1.42,1.67-1.42c0.49,0,0.92,0.14,1.19,0.3l-0.22,0.64
			c-0.19-0.12-0.54-0.28-0.99-0.28c-0.52,0-0.81,0.3-0.81,0.66c0,0.4,0.29,0.58,0.92,0.82c0.84,0.32,1.27,0.74,1.27,1.46
			c0,0.85-0.66,1.45-1.81,1.45c-0.53,0-1.02-0.13-1.36-0.33L204.82,165.62z"/>
		<path d="M209.39,164.26c0.02,1.19,0.78,1.68,1.66,1.68c0.63,0,1.01-0.11,1.34-0.25l0.15,0.63c-0.31,0.14-0.84,0.3-1.61,0.3
			c-1.49,0-2.38-0.98-2.38-2.44c0-1.46,0.86-2.61,2.27-2.61c1.58,0,2,1.39,2,2.28c0,0.18-0.02,0.32-0.03,0.41H209.39z
			 M211.97,163.63c0.01-0.56-0.23-1.43-1.22-1.43c-0.89,0-1.28,0.82-1.35,1.43H211.97z"/>
		<path d="M213.91,163.19c0-0.57-0.01-1.06-0.04-1.51h0.77l0.03,0.95h0.04c0.22-0.65,0.75-1.06,1.34-1.06c0.1,0,0.17,0.01,0.25,0.03
			v0.83c-0.09-0.02-0.18-0.03-0.3-0.03c-0.62,0-1.06,0.47-1.18,1.13c-0.02,0.12-0.04,0.26-0.04,0.41v2.58h-0.87V163.19z"/>
		<path d="M217.06,165.62c0.26,0.17,0.72,0.35,1.16,0.35c0.64,0,0.94-0.32,0.94-0.72c0-0.42-0.25-0.65-0.9-0.89
			c-0.87-0.31-1.28-0.79-1.28-1.37c0-0.78,0.63-1.42,1.67-1.42c0.49,0,0.92,0.14,1.19,0.3l-0.22,0.64
			c-0.19-0.12-0.54-0.28-0.99-0.28c-0.52,0-0.81,0.3-0.81,0.66c0,0.4,0.29,0.58,0.92,0.82c0.84,0.32,1.27,0.74,1.27,1.46
			c0,0.85-0.66,1.45-1.81,1.45c-0.53,0-1.02-0.13-1.36-0.33L217.06,165.62z"/>
		<path d="M225.94,166.52l-0.07-0.61h-0.03c-0.27,0.38-0.79,0.72-1.48,0.72c-0.98,0-1.48-0.69-1.48-1.39c0-1.17,1.04-1.81,2.91-1.8
			v-0.1c0-0.4-0.11-1.12-1.1-1.12c-0.45,0-0.92,0.14-1.26,0.36l-0.2-0.58c0.4-0.26,0.98-0.43,1.59-0.43c1.48,0,1.84,1.01,1.84,1.98
			v1.81c0,0.42,0.02,0.83,0.08,1.16H225.94z M225.81,164.05c-0.96-0.02-2.05,0.15-2.05,1.09c0,0.57,0.38,0.84,0.83,0.84
			c0.63,0,1.03-0.4,1.17-0.81c0.03-0.09,0.05-0.19,0.05-0.28V164.05z"/>
		<path d="M228.08,162.99c0-0.5-0.01-0.91-0.04-1.31h0.78l0.05,0.8h0.02c0.24-0.46,0.8-0.91,1.6-0.91c0.67,0,1.71,0.4,1.71,2.06
			v2.89h-0.88v-2.79c0-0.78-0.29-1.43-1.12-1.43c-0.58,0-1.03,0.41-1.18,0.9c-0.04,0.11-0.06,0.26-0.06,0.41v2.91h-0.88V162.99z"/>
		<path d="M237.81,159.42v5.85c0,0.43,0.01,0.92,0.04,1.25h-0.79l-0.04-0.84H237c-0.27,0.54-0.86,0.95-1.65,0.95
			c-1.17,0-2.07-0.99-2.07-2.46c-0.01-1.61,0.99-2.6,2.17-2.6c0.74,0,1.24,0.35,1.46,0.74h0.02v-2.89H237.81z M236.93,163.65
			c0-0.11-0.01-0.26-0.04-0.37c-0.13-0.56-0.61-1.02-1.27-1.02c-0.91,0-1.45,0.8-1.45,1.87c0,0.98,0.48,1.79,1.43,1.79
			c0.59,0,1.13-0.39,1.29-1.05c0.03-0.12,0.04-0.24,0.04-0.38V163.65z"/>
		<path d="M244.07,166.52l-0.07-0.61h-0.03c-0.27,0.38-0.79,0.72-1.48,0.72c-0.98,0-1.48-0.69-1.48-1.39c0-1.17,1.04-1.81,2.91-1.8
			v-0.1c0-0.4-0.11-1.12-1.1-1.12c-0.45,0-0.92,0.14-1.26,0.36l-0.2-0.58c0.4-0.26,0.98-0.43,1.59-0.43c1.48,0,1.84,1.01,1.84,1.98
			v1.81c0,0.42,0.02,0.83,0.08,1.16H244.07z M243.94,164.05c-0.96-0.02-2.05,0.15-2.05,1.09c0,0.57,0.38,0.84,0.83,0.84
			c0.63,0,1.03-0.4,1.17-0.81c0.03-0.09,0.05-0.19,0.05-0.28V164.05z"/>
		<path d="M250.39,159.42v5.85c0,0.43,0.01,0.92,0.04,1.25h-0.79l-0.04-0.84h-0.02c-0.27,0.54-0.86,0.95-1.65,0.95
			c-1.17,0-2.07-0.99-2.07-2.46c-0.01-1.61,0.99-2.6,2.17-2.6c0.74,0,1.24,0.35,1.46,0.74h0.02v-2.89H250.39z M249.51,163.65
			c0-0.11-0.01-0.26-0.04-0.37c-0.13-0.56-0.61-1.02-1.27-1.02c-0.91,0-1.45,0.8-1.45,1.87c0,0.98,0.48,1.79,1.43,1.79
			c0.59,0,1.13-0.39,1.29-1.05c0.03-0.12,0.04-0.24,0.04-0.38V163.65z"/>
		<path d="M256.03,159.42v5.85c0,0.43,0.01,0.92,0.04,1.25h-0.79l-0.04-0.84h-0.02c-0.27,0.54-0.86,0.95-1.65,0.95
			c-1.17,0-2.07-0.99-2.07-2.46c-0.01-1.61,0.99-2.6,2.17-2.6c0.74,0,1.24,0.35,1.46,0.74h0.02v-2.89H256.03z M255.15,163.65
			c0-0.11-0.01-0.26-0.04-0.37c-0.13-0.56-0.61-1.02-1.27-1.02c-0.91,0-1.45,0.8-1.45,1.87c0,0.98,0.48,1.79,1.43,1.79
			c0.59,0,1.13-0.39,1.29-1.05c0.03-0.12,0.04-0.24,0.04-0.38V163.65z"/>
		<path d="M260.67,160.29v1.39h1.26v0.67h-1.26v2.61c0,0.6,0.17,0.94,0.66,0.94c0.23,0,0.4-0.03,0.51-0.06l0.04,0.66
			c-0.17,0.07-0.44,0.12-0.78,0.12c-0.41,0-0.74-0.13-0.95-0.37c-0.25-0.26-0.34-0.69-0.34-1.26v-2.64h-0.75v-0.67h0.75v-1.16
			L260.67,160.29z"/>
		<path d="M262.92,159.42h0.88v3.02h0.02c0.14-0.25,0.36-0.47,0.63-0.62c0.26-0.15,0.57-0.25,0.9-0.25c0.65,0,1.69,0.4,1.69,2.07
			v2.88h-0.88v-2.78c0-0.78-0.29-1.44-1.12-1.44c-0.57,0-1.02,0.4-1.18,0.88c-0.05,0.12-0.06,0.25-0.06,0.42v2.92h-0.88V159.42z"/>
		<path d="M268.96,164.26c0.02,1.19,0.78,1.68,1.66,1.68c0.63,0,1.01-0.11,1.34-0.25l0.15,0.63c-0.31,0.14-0.84,0.3-1.61,0.3
			c-1.49,0-2.38-0.98-2.38-2.44c0-1.46,0.86-2.61,2.27-2.61c1.58,0,2,1.39,2,2.28c0,0.18-0.02,0.32-0.03,0.41H268.96z
			 M271.54,163.63c0.01-0.56-0.23-1.43-1.22-1.43c-0.89,0-1.28,0.82-1.35,1.43H271.54z"/>
		<path d="M273.48,162.99c0-0.5-0.01-0.91-0.04-1.31h0.77l0.04,0.78h0.03c0.27-0.46,0.72-0.89,1.52-0.89c0.66,0,1.16,0.4,1.37,0.97
			h0.02c0.15-0.27,0.34-0.48,0.54-0.63c0.29-0.22,0.61-0.34,1.07-0.34c0.64,0,1.59,0.42,1.59,2.1v2.85h-0.86v-2.74
			c0-0.93-0.34-1.49-1.05-1.49c-0.5,0-0.89,0.37-1.04,0.8c-0.04,0.12-0.07,0.28-0.07,0.44v2.99h-0.86v-2.9
			c0-0.77-0.34-1.33-1.01-1.33c-0.55,0-0.95,0.44-1.09,0.88c-0.05,0.13-0.07,0.28-0.07,0.43v2.92h-0.86V162.99z"/>
		<path d="M285,160.29v1.39h1.26v0.67H285v2.61c0,0.6,0.17,0.94,0.66,0.94c0.23,0,0.4-0.03,0.51-0.06l0.04,0.66
			c-0.17,0.07-0.44,0.12-0.78,0.12c-0.41,0-0.74-0.13-0.95-0.37c-0.25-0.26-0.34-0.69-0.34-1.26v-2.64h-0.75v-0.67h0.75v-1.16
			L285,160.29z"/>
		<path d="M291.57,164.06c0,1.79-1.24,2.57-2.41,2.57c-1.31,0-2.32-0.96-2.32-2.49c0-1.62,1.06-2.57,2.4-2.57
			C290.63,161.57,291.57,162.58,291.57,164.06z M287.73,164.11c0,1.06,0.61,1.86,1.47,1.86c0.84,0,1.47-0.79,1.47-1.88
			c0-0.82-0.41-1.86-1.45-1.86C288.18,162.23,287.73,163.19,287.73,164.11z"/>
		<path d="M295.12,161.68l1.06,2.86c0.11,0.32,0.23,0.7,0.31,0.99h0.02c0.09-0.29,0.19-0.66,0.31-1.01l0.96-2.84h0.93l-1.32,3.45
			c-0.63,1.66-1.06,2.51-1.66,3.03c-0.43,0.38-0.86,0.53-1.08,0.57l-0.22-0.74c0.22-0.07,0.51-0.21,0.77-0.43
			c0.24-0.19,0.54-0.53,0.74-0.98c0.04-0.09,0.07-0.16,0.07-0.21s-0.02-0.12-0.06-0.23l-1.79-4.46H295.12z"/>
		<path d="M303.79,164.06c0,1.79-1.24,2.57-2.41,2.57c-1.31,0-2.32-0.96-2.32-2.49c0-1.62,1.06-2.57,2.4-2.57
			C302.85,161.57,303.79,162.58,303.79,164.06z M299.95,164.11c0,1.06,0.61,1.86,1.47,1.86c0.84,0,1.47-0.79,1.47-1.88
			c0-0.82-0.41-1.86-1.45-1.86C300.4,162.23,299.95,163.19,299.95,164.11z"/>
		<path d="M308.95,165.2c0,0.5,0.01,0.94,0.04,1.32h-0.78l-0.05-0.79h-0.02c-0.23,0.39-0.74,0.9-1.6,0.9
			c-0.76,0-1.67-0.42-1.67-2.12v-2.83h0.88v2.68c0,0.92,0.28,1.54,1.08,1.54c0.59,0,1-0.41,1.16-0.8c0.05-0.13,0.08-0.29,0.08-0.45
			v-2.97h0.88V165.2z"/>
		<path d="M310.41,163.19c0-0.57-0.01-1.06-0.04-1.51h0.77l0.03,0.95h0.04c0.22-0.65,0.75-1.06,1.34-1.06c0.1,0,0.17,0.01,0.25,0.03
			v0.83c-0.09-0.02-0.18-0.03-0.3-0.03c-0.62,0-1.06,0.47-1.18,1.13c-0.02,0.12-0.04,0.26-0.04,0.41v2.58h-0.87V163.19z"/>
		<path d="M315.8,159.42h0.88v7.1h-0.88V159.42z"/>
		<path d="M319.14,160.32c0.01,0.3-0.21,0.54-0.56,0.54c-0.31,0-0.53-0.24-0.53-0.54c0-0.31,0.23-0.55,0.55-0.55
			C318.93,159.77,319.14,160.01,319.14,160.32z M318.16,166.52v-4.84h0.88v4.84H318.16z"/>
		<path d="M320.38,165.62c0.26,0.17,0.72,0.35,1.16,0.35c0.64,0,0.94-0.32,0.94-0.72c0-0.42-0.25-0.65-0.9-0.89
			c-0.87-0.31-1.28-0.79-1.28-1.37c0-0.78,0.63-1.42,1.67-1.42c0.49,0,0.92,0.14,1.19,0.3l-0.22,0.64
			c-0.19-0.12-0.54-0.28-0.99-0.28c-0.52,0-0.81,0.3-0.81,0.66c0,0.4,0.29,0.58,0.92,0.82c0.84,0.32,1.27,0.74,1.27,1.46
			c0,0.85-0.66,1.45-1.81,1.45c-0.53,0-1.02-0.13-1.36-0.33L320.38,165.62z"/>
		<path d="M325.52,160.29v1.39h1.26v0.67h-1.26v2.61c0,0.6,0.17,0.94,0.66,0.94c0.23,0,0.4-0.03,0.51-0.06l0.04,0.66
			c-0.17,0.07-0.44,0.12-0.78,0.12c-0.41,0-0.74-0.13-0.95-0.37c-0.25-0.26-0.34-0.69-0.34-1.26v-2.64h-0.75v-0.67h0.75v-1.16
			L325.52,160.29z"/>
		<path d="M327.53,166c0-0.37,0.25-0.63,0.6-0.63s0.59,0.26,0.59,0.63c0,0.36-0.23,0.63-0.6,0.63
			C327.77,166.63,327.53,166.36,327.53,166z"/>
	</g>
	<g>
		<path d="M198.68,263.46c0.39,0.24,0.96,0.44,1.56,0.44c0.89,0,1.41-0.47,1.41-1.15c0-0.63-0.36-0.99-1.27-1.34
			c-1.1-0.39-1.78-0.96-1.78-1.91c0-1.05,0.87-1.83,2.18-1.83c0.69,0,1.19,0.16,1.49,0.33l-0.24,0.71
			c-0.22-0.12-0.67-0.32-1.28-0.32c-0.92,0-1.27,0.55-1.27,1.01c0,0.63,0.41,0.94,1.34,1.3c1.14,0.44,1.72,0.99,1.72,1.98
			c0,1.04-0.77,1.94-2.36,1.94c-0.65,0-1.36-0.19-1.72-0.43L198.68,263.46z"/>
		<path d="M204.73,258.3v1.39h1.26v0.67h-1.26v2.61c0,0.6,0.17,0.94,0.66,0.94c0.23,0,0.4-0.03,0.51-0.06l0.04,0.66
			c-0.17,0.07-0.44,0.12-0.78,0.12c-0.41,0-0.74-0.13-0.95-0.37c-0.25-0.26-0.34-0.69-0.34-1.26v-2.64h-0.75v-0.67h0.75v-1.16
			L204.73,258.3z"/>
		<path d="M209.66,264.52l-0.07-0.61h-0.03c-0.27,0.38-0.79,0.72-1.48,0.72c-0.98,0-1.48-0.69-1.48-1.39c0-1.17,1.04-1.81,2.91-1.8
			v-0.1c0-0.4-0.11-1.12-1.1-1.12c-0.45,0-0.92,0.14-1.26,0.36l-0.2-0.58c0.4-0.26,0.98-0.43,1.59-0.43c1.48,0,1.84,1.01,1.84,1.98
			v1.81c0,0.42,0.02,0.83,0.08,1.16H209.66z M209.53,262.06c-0.96-0.02-2.05,0.15-2.05,1.09c0,0.57,0.38,0.84,0.83,0.84
			c0.63,0,1.03-0.4,1.17-0.81c0.03-0.09,0.05-0.19,0.05-0.28V262.06z"/>
		<path d="M211.8,261.2c0-0.57-0.01-1.06-0.04-1.51h0.77l0.03,0.95h0.04c0.22-0.65,0.75-1.06,1.34-1.06c0.1,0,0.17,0.01,0.25,0.03
			v0.83c-0.09-0.02-0.18-0.03-0.3-0.03c-0.62,0-1.06,0.47-1.18,1.13c-0.02,0.12-0.04,0.26-0.04,0.41v2.58h-0.87V261.2z"/>
		<path d="M216.37,258.3v1.39h1.26v0.67h-1.26v2.61c0,0.6,0.17,0.94,0.66,0.94c0.23,0,0.4-0.03,0.51-0.06l0.04,0.66
			c-0.17,0.07-0.44,0.12-0.78,0.12c-0.41,0-0.74-0.13-0.95-0.37c-0.25-0.26-0.34-0.69-0.34-1.26v-2.64h-0.75v-0.67h0.75v-1.16
			L216.37,258.3z"/>
		<path d="M221.06,259.69l1.06,2.86c0.11,0.32,0.23,0.7,0.31,0.99h0.02c0.09-0.29,0.19-0.66,0.31-1.01l0.96-2.84h0.93l-1.32,3.45
			c-0.63,1.66-1.06,2.51-1.66,3.03c-0.43,0.38-0.86,0.53-1.08,0.57l-0.22-0.74c0.22-0.07,0.51-0.21,0.77-0.43
			c0.24-0.19,0.54-0.53,0.74-0.98c0.04-0.09,0.07-0.16,0.07-0.21s-0.02-0.12-0.06-0.23l-1.79-4.46H221.06z"/>
		<path d="M229.73,262.07c0,1.79-1.24,2.57-2.41,2.57c-1.31,0-2.32-0.96-2.32-2.49c0-1.62,1.06-2.57,2.4-2.57
			C228.79,259.58,229.73,260.59,229.73,262.07z M225.89,262.12c0,1.06,0.61,1.86,1.47,1.86c0.84,0,1.47-0.79,1.47-1.88
			c0-0.82-0.41-1.86-1.45-1.86C226.34,260.24,225.89,261.2,225.89,262.12z"/>
		<path d="M234.89,263.2c0,0.5,0.01,0.94,0.04,1.32h-0.78l-0.05-0.79h-0.02c-0.23,0.39-0.74,0.9-1.6,0.9
			c-0.76,0-1.67-0.42-1.67-2.12v-2.83h0.88v2.68c0,0.92,0.28,1.54,1.08,1.54c0.59,0,1-0.41,1.16-0.8c0.05-0.13,0.08-0.29,0.08-0.45
			v-2.97h0.88V263.2z"/>
		<path d="M236.35,261.2c0-0.57-0.01-1.06-0.04-1.51h0.77l0.03,0.95h0.04c0.22-0.65,0.75-1.06,1.34-1.06c0.1,0,0.17,0.01,0.25,0.03
			v0.83c-0.09-0.02-0.18-0.03-0.3-0.03c-0.62,0-1.06,0.47-1.18,1.13c-0.02,0.12-0.04,0.26-0.04,0.41v2.58h-0.87V261.2z"/>
		<path d="M245.91,259.69c-0.02,0.35-0.04,0.74-0.04,1.33v2.81c0,1.11-0.22,1.79-0.69,2.21c-0.47,0.44-1.15,0.58-1.76,0.58
			c-0.58,0-1.22-0.14-1.61-0.4l0.22-0.67c0.32,0.2,0.82,0.38,1.42,0.38c0.9,0,1.56-0.47,1.56-1.69v-0.54h-0.02
			c-0.27,0.45-0.79,0.81-1.54,0.81c-1.2,0-2.06-1.02-2.06-2.36c0-1.64,1.07-2.57,2.18-2.57c0.84,0,1.3,0.44,1.51,0.84h0.02
			l0.04-0.73H245.91z M245,261.6c0-0.15-0.01-0.28-0.05-0.4c-0.16-0.51-0.59-0.93-1.23-0.93c-0.84,0-1.44,0.71-1.44,1.83
			c0,0.95,0.48,1.74,1.43,1.74c0.54,0,1.03-0.34,1.22-0.9c0.05-0.15,0.07-0.32,0.07-0.47V261.6z"/>
		<path d="M250.01,264.52l-0.07-0.61h-0.03c-0.27,0.38-0.79,0.72-1.48,0.72c-0.98,0-1.48-0.69-1.48-1.39c0-1.17,1.04-1.81,2.91-1.8
			v-0.1c0-0.4-0.11-1.12-1.1-1.12c-0.45,0-0.92,0.14-1.26,0.36l-0.2-0.58c0.4-0.26,0.98-0.43,1.59-0.43c1.48,0,1.84,1.01,1.84,1.98
			v1.81c0,0.42,0.02,0.83,0.08,1.16H250.01z M249.88,262.06c-0.96-0.02-2.05,0.15-2.05,1.09c0,0.57,0.38,0.84,0.83,0.84
			c0.63,0,1.03-0.4,1.17-0.81c0.03-0.09,0.05-0.19,0.05-0.28V262.06z"/>
		<path d="M252.15,261c0-0.5-0.01-0.91-0.04-1.31h0.77l0.04,0.78h0.03c0.27-0.46,0.72-0.89,1.52-0.89c0.66,0,1.16,0.4,1.37,0.97
			h0.02c0.15-0.27,0.34-0.48,0.54-0.63c0.29-0.22,0.61-0.34,1.07-0.34c0.64,0,1.59,0.42,1.59,2.1v2.85h-0.86v-2.74
			c0-0.93-0.34-1.49-1.05-1.49c-0.5,0-0.89,0.37-1.04,0.8c-0.04,0.12-0.07,0.28-0.07,0.44v2.99h-0.86v-2.9
			c0-0.77-0.34-1.33-1.01-1.33c-0.55,0-0.95,0.44-1.09,0.88c-0.05,0.13-0.07,0.28-0.07,0.43v2.92h-0.86V261z"/>
		<path d="M260.98,262.27c0.02,1.19,0.78,1.68,1.66,1.68c0.63,0,1.01-0.11,1.34-0.25l0.15,0.63c-0.31,0.14-0.84,0.3-1.61,0.3
			c-1.49,0-2.38-0.98-2.38-2.44c0-1.46,0.86-2.61,2.27-2.61c1.58,0,2,1.39,2,2.28c0,0.18-0.02,0.32-0.03,0.41H260.98z
			 M263.56,261.64c0.01-0.56-0.23-1.43-1.22-1.43c-0.89,0-1.28,0.82-1.35,1.43H263.56z"/>
		<path d="M265.5,261.2c0-0.57-0.01-1.06-0.04-1.51h0.77l0.03,0.95h0.04c0.22-0.65,0.75-1.06,1.34-1.06c0.1,0,0.17,0.01,0.25,0.03
			v0.83c-0.09-0.02-0.18-0.03-0.3-0.03c-0.62,0-1.06,0.47-1.18,1.13c-0.02,0.12-0.04,0.26-0.04,0.41v2.58h-0.87V261.2z"/>
		<path d="M270.89,257.43h0.88v7.1h-0.88V257.43z"/>
		<path d="M274.23,258.33c0.01,0.3-0.21,0.54-0.56,0.54c-0.31,0-0.53-0.24-0.53-0.54c0-0.31,0.23-0.55,0.55-0.55
			C274.02,257.78,274.23,258.02,274.23,258.33z M273.25,264.52v-4.84h0.88v4.84H273.25z"/>
		<path d="M275.55,264.52c0.02-0.33,0.04-0.82,0.04-1.25v-5.85h0.87v3.04h0.02c0.31-0.54,0.87-0.89,1.65-0.89
			c1.2,0,2.05,1,2.04,2.47c0,1.73-1.09,2.59-2.17,2.59c-0.7,0-1.26-0.27-1.62-0.91h-0.03l-0.04,0.8H275.55z M276.46,262.58
			c0,0.11,0.02,0.22,0.04,0.32c0.17,0.61,0.68,1.03,1.32,1.03c0.92,0,1.47-0.75,1.47-1.86c0-0.97-0.5-1.8-1.44-1.8
			c-0.6,0-1.16,0.41-1.34,1.08c-0.02,0.1-0.05,0.22-0.05,0.36V262.58z"/>
		<path d="M281.28,261.2c0-0.57-0.01-1.06-0.04-1.51h0.77l0.03,0.95h0.04c0.22-0.65,0.75-1.06,1.34-1.06c0.1,0,0.17,0.01,0.25,0.03
			v0.83c-0.09-0.02-0.18-0.03-0.3-0.03c-0.62,0-1.06,0.47-1.18,1.13c-0.02,0.12-0.04,0.26-0.04,0.41v2.58h-0.87V261.2z"/>
		<path d="M287.18,264.52l-0.07-0.61h-0.03c-0.27,0.38-0.79,0.72-1.48,0.72c-0.98,0-1.48-0.69-1.48-1.39c0-1.17,1.04-1.81,2.91-1.8
			v-0.1c0-0.4-0.11-1.12-1.1-1.12c-0.45,0-0.92,0.14-1.26,0.36l-0.2-0.58c0.4-0.26,0.98-0.43,1.59-0.43c1.48,0,1.84,1.01,1.84,1.98
			v1.81c0,0.42,0.02,0.83,0.08,1.16H287.18z M287.05,262.06c-0.96-0.02-2.05,0.15-2.05,1.09c0,0.57,0.38,0.84,0.83,0.84
			c0.63,0,1.03-0.4,1.17-0.81c0.03-0.09,0.05-0.19,0.05-0.28V262.06z"/>
		<path d="M289.32,261.2c0-0.57-0.01-1.06-0.04-1.51h0.77l0.03,0.95h0.04c0.22-0.65,0.75-1.06,1.34-1.06c0.1,0,0.17,0.01,0.25,0.03
			v0.83c-0.09-0.02-0.18-0.03-0.3-0.03c-0.62,0-1.06,0.47-1.18,1.13c-0.02,0.12-0.04,0.26-0.04,0.41v2.58h-0.87V261.2z"/>
		<path d="M293.16,259.69l1.06,2.86c0.11,0.32,0.23,0.7,0.31,0.99h0.02c0.09-0.29,0.19-0.66,0.31-1.01l0.96-2.84h0.93l-1.32,3.45
			c-0.63,1.66-1.06,2.51-1.66,3.03c-0.43,0.38-0.86,0.53-1.08,0.57l-0.22-0.74c0.22-0.07,0.51-0.21,0.77-0.43
			c0.24-0.19,0.54-0.53,0.74-0.98c0.04-0.09,0.07-0.16,0.07-0.21s-0.02-0.12-0.06-0.23l-1.79-4.46H293.16z"/>
		<path d="M302.35,264.52l-0.07-0.61h-0.03c-0.27,0.38-0.79,0.72-1.48,0.72c-0.98,0-1.48-0.69-1.48-1.39c0-1.17,1.04-1.81,2.91-1.8
			v-0.1c0-0.4-0.11-1.12-1.1-1.12c-0.45,0-0.92,0.14-1.26,0.36l-0.2-0.58c0.4-0.26,0.98-0.43,1.59-0.43c1.48,0,1.84,1.01,1.84,1.98
			v1.81c0,0.42,0.02,0.83,0.08,1.16H302.35z M302.22,262.06c-0.96-0.02-2.05,0.15-2.05,1.09c0,0.57,0.38,0.84,0.83,0.84
			c0.63,0,1.03-0.4,1.17-0.81c0.03-0.09,0.05-0.19,0.05-0.28V262.06z"/>
		<path d="M304.49,261c0-0.5-0.01-0.91-0.04-1.31h0.78l0.05,0.8h0.02c0.24-0.46,0.8-0.91,1.6-0.91c0.67,0,1.71,0.4,1.71,2.06v2.89
			h-0.88v-2.79c0-0.78-0.29-1.43-1.12-1.43c-0.58,0-1.03,0.41-1.18,0.9c-0.04,0.11-0.06,0.26-0.06,0.41v2.91h-0.88V261z"/>
		<path d="M314.21,257.43v5.85c0,0.43,0.01,0.92,0.04,1.25h-0.79l-0.04-0.84h-0.02c-0.27,0.54-0.86,0.95-1.65,0.95
			c-1.17,0-2.07-0.99-2.07-2.46c-0.01-1.61,0.99-2.6,2.17-2.6c0.74,0,1.24,0.35,1.46,0.74h0.02v-2.89H314.21z M313.33,261.66
			c0-0.11-0.01-0.26-0.04-0.37c-0.13-0.56-0.61-1.02-1.27-1.02c-0.91,0-1.45,0.8-1.45,1.87c0,0.98,0.48,1.79,1.43,1.79
			c0.59,0,1.13-0.39,1.29-1.05c0.03-0.12,0.04-0.24,0.04-0.38V261.66z"/>
		<path d="M201.45,276.52l-0.07-0.61h-0.03c-0.27,0.38-0.79,0.72-1.48,0.72c-0.98,0-1.48-0.69-1.48-1.39c0-1.17,1.04-1.81,2.91-1.8
			v-0.1c0-0.4-0.11-1.12-1.1-1.12c-0.45,0-0.92,0.14-1.26,0.36l-0.2-0.58c0.4-0.26,0.98-0.43,1.59-0.43c1.48,0,1.84,1.01,1.84,1.98
			v1.81c0,0.42,0.02,0.83,0.08,1.16H201.45z M201.32,274.06c-0.96-0.02-2.05,0.15-2.05,1.09c0,0.57,0.38,0.84,0.83,0.84
			c0.63,0,1.03-0.4,1.17-0.81c0.03-0.09,0.05-0.19,0.05-0.28V274.06z"/>
		<path d="M203.59,269.43h0.88v7.1h-0.88V269.43z"/>
		<path d="M206.3,271.69l0.64,2.46c0.14,0.54,0.27,1.04,0.36,1.54h0.03c0.11-0.49,0.27-1.01,0.43-1.53l0.79-2.47h0.74l0.75,2.42
			c0.18,0.58,0.32,1.09,0.43,1.58h0.03c0.08-0.49,0.21-1,0.37-1.57l0.69-2.43h0.87l-1.56,4.84h-0.8l-0.74-2.31
			c-0.17-0.54-0.31-1.02-0.43-1.59h-0.02c-0.12,0.58-0.27,1.08-0.44,1.6l-0.78,2.3h-0.8l-1.46-4.84H206.3z"/>
		<path d="M215.95,276.52l-0.07-0.61h-0.03c-0.27,0.38-0.79,0.72-1.48,0.72c-0.98,0-1.48-0.69-1.48-1.39c0-1.17,1.04-1.81,2.91-1.8
			v-0.1c0-0.4-0.11-1.12-1.1-1.12c-0.45,0-0.92,0.14-1.26,0.36l-0.2-0.58c0.4-0.26,0.98-0.43,1.59-0.43c1.48,0,1.84,1.01,1.84,1.98
			v1.81c0,0.42,0.02,0.83,0.08,1.16H215.95z M215.82,274.06c-0.96-0.02-2.05,0.15-2.05,1.09c0,0.57,0.38,0.84,0.83,0.84
			c0.63,0,1.03-0.4,1.17-0.81c0.03-0.09,0.05-0.19,0.05-0.28V274.06z"/>
		<path d="M218.33,271.69l1.06,2.86c0.11,0.32,0.23,0.7,0.31,0.99h0.02c0.09-0.29,0.19-0.66,0.31-1.01l0.96-2.84h0.93l-1.32,3.45
			c-0.63,1.66-1.06,2.51-1.66,3.03c-0.43,0.38-0.86,0.53-1.08,0.57l-0.22-0.74c0.22-0.07,0.51-0.21,0.77-0.43
			c0.24-0.19,0.54-0.53,0.74-0.98c0.04-0.09,0.07-0.16,0.07-0.21s-0.02-0.12-0.06-0.23l-1.79-4.46H218.33z"/>
		<path d="M222.54,275.62c0.26,0.17,0.72,0.35,1.16,0.35c0.64,0,0.94-0.32,0.94-0.72c0-0.42-0.25-0.65-0.9-0.89
			c-0.87-0.31-1.28-0.79-1.28-1.37c0-0.78,0.63-1.42,1.67-1.42c0.49,0,0.92,0.14,1.19,0.3l-0.22,0.64
			c-0.19-0.12-0.54-0.28-0.99-0.28c-0.52,0-0.81,0.3-0.81,0.66c0,0.4,0.29,0.58,0.92,0.82c0.84,0.32,1.27,0.74,1.27,1.46
			c0,0.85-0.66,1.45-1.81,1.45c-0.53,0-1.02-0.13-1.36-0.33L222.54,275.62z"/>
		<path d="M228.74,273.2c0-0.57-0.01-1.06-0.04-1.51h0.77l0.03,0.95h0.04c0.22-0.65,0.75-1.06,1.34-1.06c0.1,0,0.17,0.01,0.25,0.03
			v0.83c-0.09-0.02-0.18-0.03-0.3-0.03c-0.62,0-1.06,0.47-1.18,1.13c-0.02,0.12-0.04,0.26-0.04,0.41v2.58h-0.87V273.2z"/>
		<path d="M232.4,274.27c0.02,1.19,0.78,1.68,1.66,1.68c0.63,0,1.01-0.11,1.34-0.25l0.15,0.63c-0.31,0.14-0.84,0.3-1.61,0.3
			c-1.49,0-2.38-0.98-2.38-2.44c0-1.46,0.86-2.61,2.27-2.61c1.58,0,2,1.39,2,2.28c0,0.18-0.02,0.32-0.03,0.41H232.4z M234.98,273.64
			c0.01-0.56-0.23-1.43-1.22-1.43c-0.89,0-1.28,0.82-1.35,1.43H234.98z"/>
		<path d="M236.92,273c0-0.5-0.01-0.91-0.04-1.31h0.77l0.04,0.78h0.03c0.27-0.46,0.72-0.89,1.52-0.89c0.66,0,1.16,0.4,1.37,0.97
			h0.02c0.15-0.27,0.34-0.48,0.54-0.63c0.29-0.22,0.61-0.34,1.07-0.34c0.64,0,1.59,0.42,1.59,2.1v2.85h-0.86v-2.74
			c0-0.93-0.34-1.49-1.05-1.49c-0.5,0-0.89,0.37-1.04,0.8c-0.04,0.12-0.07,0.28-0.07,0.44v2.99h-0.86v-2.9
			c0-0.77-0.34-1.33-1.01-1.33c-0.55,0-0.95,0.44-1.09,0.88c-0.05,0.13-0.07,0.28-0.07,0.43v2.92h-0.86V273z"/>
		<path d="M245.75,274.27c0.02,1.19,0.78,1.68,1.66,1.68c0.63,0,1.01-0.11,1.34-0.25l0.15,0.63c-0.31,0.14-0.84,0.3-1.61,0.3
			c-1.49,0-2.38-0.98-2.38-2.44c0-1.46,0.86-2.61,2.27-2.61c1.58,0,2,1.39,2,2.28c0,0.18-0.02,0.32-0.03,0.41H245.75z
			 M248.33,273.64c0.01-0.56-0.23-1.43-1.22-1.43c-0.89,0-1.28,0.82-1.35,1.43H248.33z"/>
		<path d="M250.27,273c0-0.5-0.01-0.91-0.04-1.31H251l0.04,0.78h0.03c0.27-0.46,0.72-0.89,1.52-0.89c0.66,0,1.16,0.4,1.37,0.97h0.02
			c0.15-0.27,0.34-0.48,0.54-0.63c0.29-0.22,0.61-0.34,1.07-0.34c0.64,0,1.59,0.42,1.59,2.1v2.85h-0.86v-2.74
			c0-0.93-0.34-1.49-1.05-1.49c-0.5,0-0.89,0.37-1.04,0.8c-0.04,0.12-0.07,0.28-0.07,0.44v2.99h-0.86v-2.9
			c0-0.77-0.34-1.33-1.01-1.33c-0.55,0-0.95,0.44-1.09,0.88c-0.05,0.13-0.07,0.28-0.07,0.43v2.92h-0.86V273z"/>
		<path d="M258.57,276.52c0.02-0.33,0.04-0.82,0.04-1.25v-5.85h0.87v3.04h0.02c0.31-0.54,0.87-0.89,1.65-0.89
			c1.2,0,2.05,1,2.04,2.47c0,1.73-1.09,2.59-2.17,2.59c-0.7,0-1.26-0.27-1.62-0.91h-0.03l-0.04,0.8H258.57z M259.48,274.58
			c0,0.11,0.02,0.22,0.04,0.32c0.17,0.61,0.68,1.03,1.32,1.03c0.92,0,1.47-0.75,1.47-1.86c0-0.97-0.5-1.8-1.44-1.8
			c-0.6,0-1.16,0.41-1.34,1.08c-0.02,0.1-0.05,0.22-0.05,0.36V274.58z"/>
		<path d="M264.79,274.27c0.02,1.19,0.78,1.68,1.66,1.68c0.63,0,1.01-0.11,1.34-0.25l0.15,0.63c-0.31,0.14-0.84,0.3-1.61,0.3
			c-1.49,0-2.38-0.98-2.38-2.44c0-1.46,0.86-2.61,2.27-2.61c1.58,0,2,1.39,2,2.28c0,0.18-0.02,0.32-0.03,0.41H264.79z
			 M267.37,273.64c0.01-0.56-0.23-1.43-1.22-1.43c-0.89,0-1.28,0.82-1.35,1.43H267.37z"/>
		<path d="M269.31,273.2c0-0.57-0.01-1.06-0.04-1.51h0.77l0.03,0.95h0.04c0.22-0.65,0.75-1.06,1.34-1.06c0.1,0,0.17,0.01,0.25,0.03
			v0.83c-0.09-0.02-0.18-0.03-0.3-0.03c-0.62,0-1.06,0.47-1.18,1.13c-0.02,0.12-0.04,0.26-0.04,0.41v2.58h-0.87V273.2z"/>
		<path d="M275.76,270.3v1.39h1.26v0.67h-1.26v2.61c0,0.6,0.17,0.94,0.66,0.94c0.23,0,0.4-0.03,0.51-0.06l0.04,0.66
			c-0.17,0.07-0.44,0.12-0.78,0.12c-0.41,0-0.74-0.13-0.95-0.37c-0.25-0.26-0.34-0.69-0.34-1.26v-2.64h-0.75v-0.67h0.75v-1.16
			L275.76,270.3z"/>
		<path d="M278.01,269.43h0.88v3.02h0.02c0.14-0.25,0.36-0.47,0.63-0.62c0.26-0.15,0.57-0.25,0.9-0.25c0.65,0,1.69,0.4,1.69,2.07
			v2.88h-0.88v-2.78c0-0.78-0.29-1.44-1.12-1.44c-0.57,0-1.02,0.4-1.18,0.88c-0.05,0.12-0.06,0.25-0.06,0.42v2.92h-0.88V269.43z"/>
		<path d="M284.05,274.27c0.02,1.19,0.78,1.68,1.66,1.68c0.63,0,1.01-0.11,1.34-0.25l0.15,0.63c-0.31,0.14-0.84,0.3-1.61,0.3
			c-1.49,0-2.38-0.98-2.38-2.44c0-1.46,0.86-2.61,2.27-2.61c1.58,0,2,1.39,2,2.28c0,0.18-0.02,0.32-0.03,0.41H284.05z
			 M286.63,273.64c0.01-0.56-0.23-1.43-1.22-1.43c-0.89,0-1.28,0.82-1.35,1.43H286.63z"/>
		<path d="M294.86,271.69c-0.02,0.35-0.04,0.74-0.04,1.33v2.81c0,1.11-0.22,1.79-0.69,2.21c-0.47,0.44-1.15,0.58-1.76,0.58
			c-0.58,0-1.22-0.14-1.61-0.4l0.22-0.67c0.32,0.2,0.82,0.38,1.42,0.38c0.9,0,1.56-0.47,1.56-1.69v-0.54h-0.02
			c-0.27,0.45-0.79,0.81-1.54,0.81c-1.2,0-2.06-1.02-2.06-2.36c0-1.64,1.07-2.57,2.18-2.57c0.84,0,1.3,0.44,1.51,0.84h0.02
			l0.04-0.73H294.86z M293.95,273.6c0-0.15-0.01-0.28-0.05-0.4c-0.16-0.51-0.59-0.93-1.23-0.93c-0.84,0-1.44,0.71-1.44,1.83
			c0,0.95,0.48,1.74,1.43,1.74c0.54,0,1.03-0.34,1.22-0.9c0.05-0.15,0.07-0.32,0.07-0.47V273.6z"/>
		<path d="M298.96,276.52l-0.07-0.61h-0.03c-0.27,0.38-0.79,0.72-1.48,0.72c-0.98,0-1.48-0.69-1.48-1.39c0-1.17,1.04-1.81,2.91-1.8
			v-0.1c0-0.4-0.11-1.12-1.1-1.12c-0.45,0-0.92,0.14-1.26,0.36l-0.2-0.58c0.4-0.26,0.98-0.43,1.59-0.43c1.48,0,1.84,1.01,1.84,1.98
			v1.81c0,0.42,0.02,0.83,0.08,1.16H298.96z M298.83,274.06c-0.96-0.02-2.05,0.15-2.05,1.09c0,0.57,0.38,0.84,0.83,0.84
			c0.63,0,1.03-0.4,1.17-0.81c0.03-0.09,0.05-0.19,0.05-0.28V274.06z"/>
		<path d="M301.1,273c0-0.5-0.01-0.91-0.04-1.31h0.77l0.04,0.78h0.03c0.27-0.46,0.72-0.89,1.52-0.89c0.66,0,1.16,0.4,1.37,0.97h0.02
			c0.15-0.27,0.34-0.48,0.54-0.63c0.29-0.22,0.61-0.34,1.07-0.34c0.64,0,1.59,0.42,1.59,2.1v2.85h-0.86v-2.74
			c0-0.93-0.34-1.49-1.05-1.49c-0.5,0-0.89,0.37-1.04,0.8c-0.04,0.12-0.07,0.28-0.07,0.44v2.99h-0.86v-2.9
			c0-0.77-0.34-1.33-1.01-1.33c-0.55,0-0.95,0.44-1.09,0.88c-0.05,0.13-0.07,0.28-0.07,0.43v2.92h-0.86V273z"/>
		<path d="M309.93,274.27c0.02,1.19,0.78,1.68,1.66,1.68c0.63,0,1.01-0.11,1.34-0.25l0.15,0.63c-0.31,0.14-0.84,0.3-1.61,0.3
			c-1.49,0-2.38-0.98-2.38-2.44c0-1.46,0.86-2.61,2.27-2.61c1.58,0,2,1.39,2,2.28c0,0.18-0.02,0.32-0.03,0.41H309.93z
			 M312.51,273.64c0.01-0.56-0.23-1.43-1.22-1.43c-0.89,0-1.28,0.82-1.35,1.43H312.51z"/>
		<path d="M314.33,275.62c0.26,0.17,0.72,0.35,1.16,0.35c0.64,0,0.94-0.32,0.94-0.72c0-0.42-0.25-0.65-0.9-0.89
			c-0.87-0.31-1.28-0.79-1.28-1.37c0-0.78,0.63-1.42,1.67-1.42c0.49,0,0.92,0.14,1.19,0.3l-0.22,0.64
			c-0.19-0.12-0.54-0.28-0.99-0.28c-0.52,0-0.81,0.3-0.81,0.66c0,0.4,0.29,0.58,0.92,0.82c0.84,0.32,1.27,0.74,1.27,1.46
			c0,0.85-0.66,1.45-1.81,1.45c-0.53,0-1.02-0.13-1.36-0.33L314.33,275.62z"/>
		<path d="M321.59,270.3v1.39h1.26v0.67h-1.26v2.61c0,0.6,0.17,0.94,0.66,0.94c0.23,0,0.4-0.03,0.51-0.06l0.04,0.66
			c-0.17,0.07-0.44,0.12-0.78,0.12c-0.41,0-0.74-0.13-0.95-0.37c-0.25-0.26-0.34-0.69-0.34-1.26v-2.64h-0.75v-0.67h0.75v-1.16
			L321.59,270.3z"/>
		<path d="M323.84,269.43h0.88v3.02h0.02c0.14-0.25,0.36-0.47,0.63-0.62c0.26-0.15,0.57-0.25,0.9-0.25c0.65,0,1.69,0.4,1.69,2.07
			v2.88h-0.88v-2.78c0-0.78-0.29-1.44-1.12-1.44c-0.57,0-1.02,0.4-1.18,0.88c-0.05,0.12-0.06,0.25-0.06,0.42v2.92h-0.88V269.43z"/>
		<path d="M332.07,276.52l-0.07-0.61h-0.03c-0.27,0.38-0.79,0.72-1.48,0.72c-0.98,0-1.48-0.69-1.48-1.39c0-1.17,1.04-1.81,2.91-1.8
			v-0.1c0-0.4-0.11-1.12-1.1-1.12c-0.45,0-0.92,0.14-1.26,0.36l-0.2-0.58c0.4-0.26,0.98-0.43,1.59-0.43c1.48,0,1.84,1.01,1.84,1.98
			v1.81c0,0.42,0.02,0.83,0.08,1.16H332.07z M331.94,274.06c-0.96-0.02-2.05,0.15-2.05,1.09c0,0.57,0.38,0.84,0.83,0.84
			c0.63,0,1.03-0.4,1.17-0.81c0.03-0.09,0.05-0.19,0.05-0.28V274.06z"/>
		<path d="M335.23,270.3v1.39h1.26v0.67h-1.26v2.61c0,0.6,0.17,0.94,0.66,0.94c0.23,0,0.4-0.03,0.51-0.06l0.04,0.66
			c-0.17,0.07-0.44,0.12-0.78,0.12c-0.41,0-0.74-0.13-0.95-0.37c-0.25-0.26-0.34-0.69-0.34-1.26v-2.64h-0.75v-0.67h0.75v-1.16
			L335.23,270.3z"/>
		<path d="M339.6,273c0-0.5-0.01-0.91-0.04-1.31h0.77l0.04,0.78h0.03c0.27-0.46,0.72-0.89,1.52-0.89c0.66,0,1.16,0.4,1.37,0.97h0.02
			c0.15-0.27,0.34-0.48,0.54-0.63c0.29-0.22,0.61-0.34,1.07-0.34c0.64,0,1.59,0.42,1.59,2.1v2.85h-0.86v-2.74
			c0-0.93-0.34-1.49-1.05-1.49c-0.5,0-0.89,0.37-1.04,0.8c-0.04,0.12-0.07,0.28-0.07,0.44v2.99h-0.86v-2.9
			c0-0.77-0.34-1.33-1.01-1.33c-0.55,0-0.95,0.44-1.09,0.88c-0.05,0.13-0.07,0.28-0.07,0.43v2.92h-0.86V273z"/>
		<path d="M350.62,276.52l-0.07-0.61h-0.03c-0.27,0.38-0.79,0.72-1.48,0.72c-0.98,0-1.48-0.69-1.48-1.39c0-1.17,1.04-1.81,2.91-1.8
			v-0.1c0-0.4-0.11-1.12-1.1-1.12c-0.45,0-0.92,0.14-1.26,0.36l-0.2-0.58c0.4-0.26,0.98-0.43,1.59-0.43c1.48,0,1.84,1.01,1.84,1.98
			v1.81c0,0.42,0.02,0.83,0.08,1.16H350.62z M350.49,274.06c-0.96-0.02-2.05,0.15-2.05,1.09c0,0.57,0.38,0.84,0.83,0.84
			c0.63,0,1.03-0.4,1.17-0.81c0.03-0.09,0.05-0.19,0.05-0.28V274.06z"/>
		<path d="M352.76,273.2c0-0.57-0.01-1.06-0.04-1.51h0.77l0.03,0.95h0.04c0.22-0.65,0.75-1.06,1.34-1.06c0.1,0,0.17,0.01,0.25,0.03
			v0.83c-0.09-0.02-0.18-0.03-0.3-0.03c-0.62,0-1.06,0.47-1.18,1.13c-0.02,0.12-0.04,0.26-0.04,0.41v2.58h-0.87V273.2z"/>
		<path d="M356.94,273.91h0.02c0.12-0.17,0.29-0.38,0.43-0.55l1.42-1.67h1.06l-1.87,1.99l2.13,2.85h-1.07l-1.67-2.32l-0.45,0.5v1.82
			h-0.87v-7.1h0.87V273.91z"/>
		<path d="M361.25,274.27c0.02,1.19,0.78,1.68,1.66,1.68c0.63,0,1.01-0.11,1.34-0.25l0.15,0.63c-0.31,0.14-0.84,0.3-1.61,0.3
			c-1.49,0-2.38-0.98-2.38-2.44c0-1.46,0.86-2.61,2.27-2.61c1.58,0,2,1.39,2,2.28c0,0.18-0.02,0.32-0.03,0.41H361.25z
			 M363.83,273.64c0.01-0.56-0.23-1.43-1.22-1.43c-0.89,0-1.28,0.82-1.35,1.43H363.83z"/>
		<path d="M369.94,269.43v5.85c0,0.43,0.01,0.92,0.04,1.25h-0.79l-0.04-0.84h-0.02c-0.27,0.54-0.86,0.95-1.65,0.95
			c-1.17,0-2.07-0.99-2.07-2.46c-0.01-1.61,0.99-2.6,2.17-2.6c0.74,0,1.24,0.35,1.46,0.74h0.02v-2.89H369.94z M369.06,273.66
			c0-0.11-0.01-0.26-0.04-0.37c-0.13-0.56-0.61-1.02-1.27-1.02c-0.91,0-1.45,0.8-1.45,1.87c0,0.98,0.48,1.79,1.43,1.79
			c0.59,0,1.13-0.39,1.29-1.05c0.03-0.12,0.04-0.24,0.04-0.38V273.66z"/>
		<path d="M373.85,271.69l1.06,2.86c0.11,0.32,0.23,0.7,0.31,0.99h0.02c0.09-0.29,0.19-0.66,0.31-1.01l0.96-2.84h0.93l-1.32,3.45
			c-0.63,1.66-1.06,2.51-1.66,3.03c-0.43,0.38-0.86,0.53-1.08,0.57l-0.22-0.74c0.22-0.07,0.51-0.21,0.77-0.43
			c0.24-0.19,0.54-0.53,0.74-0.98c0.04-0.09,0.07-0.16,0.07-0.21s-0.02-0.12-0.06-0.23l-1.79-4.46H373.85z"/>
		<path d="M382.51,274.07c0,1.79-1.24,2.57-2.41,2.57c-1.31,0-2.32-0.96-2.32-2.49c0-1.62,1.06-2.57,2.4-2.57
			C381.58,271.58,382.51,272.59,382.51,274.07z M378.68,274.12c0,1.06,0.61,1.86,1.47,1.86c0.84,0,1.47-0.79,1.47-1.88
			c0-0.82-0.41-1.86-1.45-1.86C379.13,272.24,378.68,273.2,378.68,274.12z"/>
		<path d="M387.67,275.2c0,0.5,0.01,0.94,0.04,1.32h-0.78l-0.05-0.79h-0.02c-0.23,0.39-0.74,0.9-1.6,0.9
			c-0.76,0-1.67-0.42-1.67-2.12v-2.83h0.88v2.68c0,0.92,0.28,1.54,1.08,1.54c0.59,0,1-0.41,1.16-0.8c0.05-0.13,0.08-0.29,0.08-0.45
			v-2.97h0.88V275.2z"/>
		<path d="M389.14,273.2c0-0.57-0.01-1.06-0.04-1.51h0.77l0.03,0.95h0.04c0.22-0.65,0.75-1.06,1.34-1.06c0.1,0,0.17,0.01,0.25,0.03
			v0.83c-0.09-0.02-0.18-0.03-0.3-0.03c-0.62,0-1.06,0.47-1.18,1.13c-0.02,0.12-0.04,0.26-0.04,0.41v2.58h-0.87V273.2z"/>
		<path d="M394.53,269.43h0.88v7.1h-0.88V269.43z"/>
		<path d="M397.87,270.33c0.01,0.3-0.21,0.54-0.56,0.54c-0.31,0-0.53-0.24-0.53-0.54c0-0.31,0.23-0.55,0.55-0.55
			C397.66,269.78,397.87,270.02,397.87,270.33z M396.89,276.52v-4.84h0.88v4.84H396.89z"/>
		<path d="M399.32,276.52v-4.17h-0.68v-0.67h0.68v-0.23c0-0.68,0.15-1.3,0.56-1.69c0.33-0.32,0.77-0.45,1.18-0.45
			c0.31,0,0.58,0.07,0.75,0.14l-0.12,0.68c-0.13-0.06-0.31-0.11-0.56-0.11c-0.75,0-0.94,0.66-0.94,1.4v0.26h1.17v0.67h-1.17v4.17
			H399.32z"/>
		<path d="M402.51,274.27c0.02,1.19,0.78,1.68,1.66,1.68c0.63,0,1.01-0.11,1.34-0.25l0.15,0.63c-0.31,0.14-0.84,0.3-1.61,0.3
			c-1.49,0-2.38-0.98-2.38-2.44c0-1.46,0.86-2.61,2.27-2.61c1.58,0,2,1.39,2,2.28c0,0.18-0.02,0.32-0.03,0.41H402.51z
			 M405.08,273.64c0.01-0.56-0.23-1.43-1.22-1.43c-0.89,0-1.28,0.82-1.35,1.43H405.08z"/>
		<path d="M406.7,276c0-0.37,0.25-0.63,0.6-0.63s0.59,0.26,0.59,0.63c0,0.36-0.23,0.63-0.6,0.63
			C406.94,276.63,406.7,276.36,406.7,276z"/>
	</g>
</g>
</svg>
