<?xml version="1.0" encoding="utf-8"?>
<!-- Generator: Adobe Illustrator 26.3.0, SVG Export Plug-In . SVG Version: 6.00 Build 0)  -->
<svg version="1.1" id="Camada_1" xmlns="http://www.w3.org/2000/svg" xmlns:xlink="http://www.w3.org/1999/xlink" x="0px" y="0px"
	 viewBox="0 0 75 50" style="enable-background:new 0 0 75 50;" xml:space="preserve">
<style type="text/css">
	.st0{fill:#FB3108;}
	.st1{fill:#070720;}
	.st2{fill:#C7D3E0;}
	.st3{fill:#FFFFFF;}
</style>
<g>
	<g>
		<path class="st0" d="M62.84,11.52c-0.33,0-0.6-0.27-0.6-0.6c0-3.38-2.75-6.13-6.13-6.13c-3.38,0-6.13,2.75-6.13,6.13
			c0,0.33-0.27,0.6-0.6,0.6c-0.33,0-0.6-0.27-0.6-0.6c0-4.04,3.28-7.32,7.32-7.32c4.04,0,7.32,3.28,7.32,7.32
			C63.44,11.25,63.17,11.52,62.84,11.52z"/>
	</g>
	<g>
		<path class="st1" d="M67.84,45.98H56.23c-1.17,0-2.13-0.96-2.13-2.13v-3.59h15.86v3.59C69.96,45.02,69.01,45.98,67.84,45.98z"/>
	</g>
	<g>
		<circle class="st0" cx="56.12" cy="11.51" r="4.19"/>
	</g>
	<path class="st2" d="M69.12,23.52c-1,0-1.84,0.7-2.08,1.63c-0.02,0-0.04-0.01-0.06-0.01h-0.01v-1.26c0-1.18-0.97-2.15-2.15-2.15
		c-1.18,0-2.15,0.97-2.15,2.15v-1.77c0-1.18-0.97-2.15-2.15-2.15c-1.18,0-2.15,0.97-2.15,2.15v-10.3c0-1.18-0.97-2.15-2.15-2.15
		s-2.15,0.97-2.15,2.15v13.73c0,0.07,0.01,0.13,0.02,0.2l-0.02-0.07c0-1.18-0.97-2.15-2.15-2.15c-1.18,0-2.15,0.97-2.15,2.15v2.51
		v2.94v1.09c0,2.39,1.92,4.35,4.3,4.43v3.65h15.88v-3.15c0.76-0.33,1.3-1.09,1.3-1.97v-9.49C71.27,24.49,70.3,23.52,69.12,23.52z
		 M54.44,26.74c-0.02,0.03-0.03,0.06-0.05,0.09l-0.1-0.35C54.35,26.57,54.39,26.66,54.44,26.74z"/>
	<g>
		<circle class="st3" cx="56.5" cy="43.41" r="0.91"/>
	</g>
	<g>
		<g>
			<path class="st1" d="M35.56,21.9l-9.59-10.56c-0.82-0.9-1.97-1.41-3.18-1.41H8.5c-2.23,0-3.37,2.69-1.81,4.29l7.46,7.65
				c1.49,1.66,1.49,4.19,0,5.85l-7.46,7.65c-1.56,1.6-0.43,4.29,1.81,4.29h14.28c1.21,0,2.37-0.51,3.18-1.41l9.59-10.56
				C37.05,26.04,37.05,23.54,35.56,21.9z"/>
		</g>
		<g>
			<path class="st3" d="M24.35,29.36c-0.36,0.5-0.94,0.76-1.74,0.76s-1.36-0.23-1.68-0.69c-0.32-0.46-0.48-1.19-0.48-2.19v-0.67
				h1.46v0.71c0,0.56,0.04,0.95,0.13,1.17c0.09,0.22,0.28,0.33,0.57,0.33s0.49-0.13,0.59-0.39c0.1-0.26,0.15-0.72,0.15-1.38
				c0-0.66-0.06-1.13-0.19-1.41c-0.13-0.28-0.38-0.42-0.75-0.42h-0.44v-1.19h0.43c0.37,0,0.62-0.12,0.75-0.37
				c0.14-0.25,0.2-0.65,0.2-1.22c0-0.56-0.06-0.94-0.17-1.14c-0.11-0.19-0.3-0.29-0.55-0.29c-0.25,0-0.42,0.1-0.52,0.31
				c-0.1,0.2-0.15,0.56-0.15,1.06v0.31h-1.51v-0.32c0-0.94,0.17-1.62,0.5-2.06c0.33-0.43,0.88-0.65,1.66-0.65
				c0.78,0,1.35,0.22,1.71,0.67c0.37,0.45,0.55,1.13,0.55,2.04c0,0.56-0.09,1.04-0.26,1.42c-0.17,0.38-0.44,0.64-0.79,0.77
				c0.39,0.18,0.66,0.49,0.83,0.91c0.16,0.42,0.24,0.97,0.24,1.64C24.89,28.09,24.71,28.85,24.35,29.36z"/>
		</g>
	</g>
</g>
</svg>
