<?xml version="1.0" encoding="utf-8"?>
<!-- Uploaded to: SVG Repo, www.svgrepo.com, Generator: SVG Repo Mixer Tools -->
<svg fill="#000000" width="800px" height="800px" viewBox="0 0 32 32" version="1.1" xmlns="http://www.w3.org/2000/svg">
<title>up-round</title>
<path d="M0 16q0-3.232 1.28-6.208t3.392-5.12 5.12-3.392 6.208-1.28q3.264 0 6.24 1.28t5.088 3.392 3.392 5.12 1.28 6.208q0 3.264-1.28 6.208t-3.392 5.12-5.12 3.424-6.208 1.248-6.208-1.248-5.12-3.424-3.392-5.12-1.28-6.208zM4 16q0 3.264 1.6 6.048t4.384 4.352 6.016 1.6 6.016-1.6 4.384-4.352 1.6-6.048-1.6-6.016-4.384-4.352-6.016-1.632-6.016 1.632-4.384 4.352-1.6 6.016zM10.048 13.632q0.096-0.608 0.544-1.056l4-4q0.576-0.576 1.408-0.576t1.408 0.576l4 4q0.448 0.448 0.544 1.056t-0.096 1.152q-0.224 0.544-0.736 0.896t-1.12 0.32h-1.984v6.016q0 0.832-0.608 1.408t-1.408 0.576-1.408-0.576-0.576-1.408v-6.016h-2.016q-0.608 0-1.12-0.32t-0.736-0.896-0.096-1.152z"></path>
</svg>